<?xml version="1.0" standalone="no"?>
<!DOCTYPE svg PUBLIC "-//W3C//DTD SVG 20010904//EN"
 "http://www.w3.org/TR/2001/REC-SVG-20010904/DTD/svg10.dtd">
<svg version="1.0" xmlns="http://www.w3.org/2000/svg"
 width="728.000000pt" height="455.000000pt" viewBox="0 0 728.000000 455.000000"
 preserveAspectRatio="xMidYMid meet">

<g transform="translate(0.000000,455.000000) scale(0.100000,-0.100000)"
fill="#000000" stroke="none">
<path d="M0 4266 l0 -284 39 -33 c22 -19 64 -50 94 -69 43 -27 61 -46 79 -84
13 -27 39 -67 60 -89 20 -22 46 -66 58 -101 12 -33 38 -101 57 -151 19 -49 52
-140 72 -201 20 -62 42 -118 49 -126 6 -8 10 -17 7 -20 -8 -8 30 -180 49 -220
11 -23 15 -45 10 -55 -4 -10 -9 -90 -12 -178 -7 -270 -6 -307 12 -350 24 -57
67 -128 73 -121 3 3 1 11 -5 19 -6 7 -16 26 -21 42 -10 26 -9 28 3 13 26 -34
26 -18 0 23 -17 28 -24 49 -20 65 4 13 2 24 -2 24 -5 0 -7 23 -4 51 4 39 2 50
-7 44 -9 -5 -9 -2 0 13 7 12 17 18 21 16 4 -3 9 10 10 28 0 18 2 39 2 47 1 8
11 15 24 16 28 2 33 7 35 36 1 13 7 30 14 37 18 18 16 32 -3 32 -11 0 -14 6
-9 20 4 13 -1 31 -14 49 -12 16 -21 43 -21 59 0 17 -5 34 -10 37 -6 4 -8 10
-5 15 3 4 -2 10 -10 14 -8 3 -15 12 -15 20 0 13 -30 65 -57 101 -9 12 -33 98
-28 103 3 4 181 -89 300 -156 44 -25 181 -96 304 -159 123 -62 229 -117 235
-123 7 -8 1 -7 -16 1 -21 9 -33 9 -50 1 -19 -10 -20 -11 -3 -7 11 2 31 -3 45
-11 l25 -15 -31 6 -31 6 5 -51 c3 -33 1 -50 -7 -50 -6 0 -11 -11 -11 -24 l0
-25 -97 4 c-59 2 -99 7 -101 14 -2 6 -7 10 -10 8 -4 -2 -15 5 -25 15 -17 18
-15 18 40 13 l58 -6 -22 21 c-16 14 -36 20 -71 20 -47 0 -49 -1 -44 -25 2 -14
8 -25 12 -25 4 0 10 -9 13 -21 3 -12 10 -19 15 -16 11 8 39 -25 39 -45 0 -9
-6 -14 -14 -11 -7 3 -13 0 -13 -6 0 -6 6 -11 13 -11 17 0 49 34 41 42 -8 9 34
21 45 13 14 -8 2 -35 -15 -35 -8 0 -14 -10 -14 -24 0 -13 -6 -27 -12 -29 -7
-3 -3 -6 10 -6 16 -1 22 -6 20 -17 -2 -10 3 -19 11 -22 9 -3 11 0 6 8 -5 9 -4
11 4 6 6 -4 9 -11 6 -16 -9 -15 7 -40 26 -40 10 0 20 -6 20 -12 4 -37 7 -55
14 -70 4 -10 3 -18 -3 -18 -15 0 -20 -45 -11 -93 4 -24 4 -43 -2 -45 -5 -2 -7
-7 -4 -12 3 -4 -1 -23 -9 -41 -11 -29 -11 -39 0 -66 8 -18 17 -33 22 -33 4 0
7 -18 8 -41 0 -22 6 -44 12 -48 7 -4 10 -15 6 -24 -3 -10 -1 -23 5 -31 6 -7
10 -28 9 -45 l-2 -30 -46 25 c-33 19 -38 20 -20 5 14 -11 36 -26 50 -33 14 -7
30 -18 35 -25 16 -19 65 -4 65 19 0 11 5 18 13 15 6 -2 11 -14 9 -27 -1 -16 2
-21 12 -17 10 4 13 1 10 -8 -3 -8 -12 -11 -20 -8 -8 3 -14 0 -14 -6 0 -6 4
-11 9 -11 5 0 13 -10 17 -22 12 -41 25 -50 41 -31 13 17 14 17 5 -2 -8 -18 -9
-66 -2 -97 2 -7 6 7 11 32 4 28 5 11 2 -44 l-6 -89 -57 -56 c-81 -80 -113
-151 -118 -263 -3 -61 -8 -88 -17 -88 -16 0 -26 -77 -18 -136 5 -41 8 -45 29
-41 24 4 34 -9 34 -44 0 -12 -7 -19 -19 -19 -30 0 -37 -21 -14 -40 l20 -16
-23 -29 c-19 -25 -25 -27 -39 -15 -9 7 -14 19 -11 26 3 8 -17 32 -48 57 -72
58 -116 110 -116 135 0 27 -47 71 -83 79 -33 7 -57 38 -57 72 0 41 -30 111
-81 188 -26 39 -55 86 -65 105 -9 18 -20 35 -23 38 -4 3 -23 30 -43 60 -20 30
-51 69 -70 87 -32 30 -98 65 -127 67 -8 1 -17 8 -19 16 -5 13 -3 13 11 1 21
-17 21 -16 1 45 -20 59 -41 83 -118 136 -42 29 -57 35 -51 22 4 -11 10 -50 12
-89 3 -38 11 -92 18 -120 8 -27 12 -51 11 -52 -1 -2 -24 29 -50 67 -48 71
-153 171 -191 183 -20 6 -20 6 -1 -6 34 -21 101 -85 96 -91 -3 -3 -22 10 -42
28 -20 18 -42 36 -49 40 -8 3 -36 20 -64 36 -27 16 -53 29 -57 30 -15 0 -9
-155 7 -176 8 -12 12 -24 9 -27 -3 -3 0 -8 7 -13 8 -4 10 -3 5 4 -14 23 13 12
41 -17 27 -27 55 -78 123 -223 17 -37 48 -83 68 -102 75 -69 226 -196 233
-196 5 0 20 -20 35 -45 14 -25 32 -45 39 -45 25 0 62 -40 74 -82 7 -23 23 -55
35 -70 11 -15 28 -37 37 -50 10 -15 36 -29 69 -38 28 -8 53 -18 56 -22 3 -4
16 -8 29 -8 13 0 30 -6 37 -13 22 -22 49 -29 127 -34 64 -4 80 -9 113 -36 39
-31 46 -52 28 -87 -6 -11 -15 -29 -20 -40 -13 -26 -13 -47 2 -56 6 -4 8 -3 5
4 -4 5 -4 17 -1 26 9 24 34 -5 35 -41 1 -28 1 -28 8 -3 9 31 32 36 73 16 34
-17 63 -22 38 -6 -8 5 -15 15 -15 22 0 7 -5 13 -12 13 -14 0 -50 41 -59 67 -3
11 -1 25 5 31 6 6 11 18 11 27 -1 13 -3 12 -14 -2 -16 -22 -26 -23 -26 -3 0 8
-18 27 -40 41 -22 15 -37 31 -34 36 5 8 75 -37 82 -54 2 -4 9 -5 15 -2 20 7
54 -32 61 -72 6 -27 23 -52 65 -93 31 -31 64 -66 72 -79 10 -16 27 -25 54 -29
22 -3 48 -9 57 -14 22 -12 41 -12 33 0 -3 6 16 7 47 4 62 -6 242 14 246 27 2
6 8 10 13 10 6 0 3 -10 -5 -22 -9 -12 -16 -30 -16 -40 0 -10 -4 -18 -9 -18 -5
0 -12 -7 -15 -15 -5 -13 -1 -12 18 2 13 10 22 22 19 26 -3 5 4 18 15 30 22 24
57 133 67 209 7 54 0 61 -73 73 -31 5 -42 11 -38 20 3 9 0 12 -10 8 -19 -7
-18 11 3 28 14 12 16 12 8 0 -6 -11 -4 -13 7 -8 9 3 21 0 27 -6 9 -9 14 -8 21
3 9 14 14 7 11 -13 0 -4 3 -7 8 -7 5 0 17 -3 27 -7 16 -6 16 -1 10 52 -4 38
-13 65 -26 77 -10 9 -21 26 -25 38 -3 11 -13 20 -22 20 -12 0 -14 7 -9 27 4
16 9 56 13 89 l6 61 51 2 c49 1 55 -2 92 -41 21 -22 31 -38 22 -35 -10 3 -20
2 -23 -3 -4 -6 4 -10 17 -10 20 -1 19 -3 -9 -15 -38 -16 -67 -58 -60 -85 7
-27 1 -25 -33 10 -26 27 -30 28 -30 11 0 -11 9 -22 20 -26 11 -4 28 -19 37
-33 9 -15 30 -42 47 -59 16 -18 28 -34 25 -36 -2 -2 -21 -15 -43 -30 -36 -24
-37 -26 -17 -36 40 -22 79 -108 87 -189 4 -42 11 -87 15 -101 8 -24 9 -23 6 6
-2 18 -2 33 0 33 2 0 29 -8 61 -19 99 -32 112 -34 112 -13 0 26 9 33 30 20 24
-15 54 -3 45 20 -30 79 32 31 224 -169 l63 -67 -18 -28 c-10 -16 -19 -31 -21
-33 -1 -2 -25 17 -52 42 -28 26 -52 47 -55 47 -5 0 12 -56 25 -82 5 -10 9 -25
9 -33 0 -13 20 -15 133 -14 72 1 121 4 107 6 -24 5 -24 5 8 19 18 7 36 25 42
39 8 22 16 25 57 26 l48 1 -39 12 -38 12 41 12 c31 10 51 10 83 2 77 -20 83
-20 43 0 -35 17 -37 19 -15 20 14 0 49 -11 79 -25 30 -14 56 -23 59 -21 2 3
-16 15 -41 27 -25 13 -44 25 -42 29 2 3 -19 3 -48 -1 -58 -8 -118 -10 -101 -3
7 3 41 9 75 13 l64 8 -55 2 c-41 2 -50 5 -35 11 26 11 83 2 115 -18 14 -9 32
-16 40 -17 8 0 14 -6 13 -12 -2 -7 2 -13 7 -13 6 0 20 -11 32 -25 13 -16 32
-25 50 -25 44 0 36 20 -25 60 -20 14 -35 30 -33 36 5 14 -78 97 -87 88 -4 -4
-7 3 -7 15 0 14 -5 21 -12 19 -13 -5 -48 33 -48 51 0 19 -17 12 -23 -9 -8 -31
-37 -14 -38 24 -1 17 -3 23 -6 13 -2 -9 -13 -17 -24 -17 -11 0 -17 -5 -14 -10
3 -6 -1 -17 -10 -26 -11 -11 -14 -28 -11 -55 l5 -40 -40 32 c-30 24 -37 34
-27 40 10 7 9 9 -4 9 -15 0 -16 4 -6 25 6 14 15 25 20 25 4 0 8 6 8 14 0 8 6
17 13 19 9 4 9 6 -1 6 -7 1 -11 5 -7 11 3 5 13 7 23 4 14 -5 15 -4 2 5 -13 9
-12 12 8 17 12 4 22 10 22 14 0 4 10 10 23 14 17 5 19 8 8 15 -8 5 -10 14 -6
21 6 10 11 9 21 -5 12 -16 17 -17 61 -4 26 7 54 12 62 10 9 -1 12 3 8 13 -5
11 3 17 28 22 18 3 42 3 53 0 10 -4 30 -2 43 3 l24 10 -25 1 c-19 0 -21 3 -11
9 11 7 9 10 -10 13 -23 4 -23 4 11 26 19 12 29 22 21 22 -11 0 -11 3 -1 15 11
13 10 15 -6 9 -15 -5 -14 -2 5 15 14 13 31 19 42 16 14 -5 17 -2 13 9 -3 9
-16 16 -28 17 -16 1 -13 3 10 10 77 22 394 29 394 9 0 -6 -33 -10 -76 -9 -41
1 -78 -2 -81 -5 -14 -13 12 -21 83 -24 49 -3 74 -8 74 -16 0 -8 -11 -11 -30
-8 -24 3 -35 -1 -50 -21 -16 -20 -33 -26 -80 -32 -33 -4 -60 -9 -60 -11 0 -2
8 -12 19 -23 18 -18 75 -170 67 -178 -2 -3 -13 19 -23 48 -13 32 -22 46 -26
37 -3 -9 6 -38 19 -66 17 -35 23 -62 20 -86 -2 -20 0 -38 5 -42 5 -3 7 -23 4
-45 -7 -47 1 -51 14 -7 l9 33 1 -32 c1 -17 -3 -34 -8 -38 -13 -7 -96 -127
-116 -165 -14 -27 -14 -30 0 -30 8 0 15 4 15 8 0 4 17 25 37 46 37 38 38 38
44 15 4 -13 4 -34 2 -46 -5 -24 12 -32 20 -11 4 10 6 10 6 1 1 -10 56 -13 240
-13 l239 0 85 50 c47 28 90 50 96 50 9 0 31 -60 31 -87 0 -9 20 -13 69 -13
l68 0 6 36 c25 156 301 246 404 133 27 -30 46 -101 38 -140 l-7 -29 289 0 288
0 -3 107 c-2 60 -12 157 -22 218 -10 60 -17 112 -14 114 9 9 44 -39 79 -109
l36 -72 31 28 31 29 -23 -34 c-19 -27 -20 -35 -9 -42 8 -5 20 -7 27 -4 8 3 36
5 63 5 27 0 49 4 49 9 0 5 -26 8 -57 5 -58 -4 -58 -4 -23 9 24 9 30 16 20 20
-8 3 3 5 25 6 31 0 36 -2 20 -9 -19 -8 -19 -9 3 -9 17 -1 23 4 21 16 -1 10 3
30 11 45 11 23 10 29 -3 43 -9 8 -14 22 -11 30 11 27 -18 16 -52 -20 -18 -19
-40 -35 -48 -35 -9 0 -16 -8 -16 -17 0 -15 -2 -16 -10 -3 -14 22 -13 25 25 46
19 10 44 31 55 46 l20 28 -27 -12 c-16 -7 -37 -19 -48 -28 -37 -31 -75 -50
-75 -40 0 6 11 15 25 20 32 12 96 70 90 81 -3 4 3 12 12 18 10 6 13 11 6 11
-17 0 -123 -63 -155 -94 -16 -14 -28 -21 -28 -16 0 8 32 35 125 105 18 15 18
15 -5 15 l-25 1 25 14 c25 14 25 14 -13 15 -41 0 -82 -17 -135 -57 -55 -41
-47 -19 9 26 28 22 65 43 83 47 32 6 142 -19 161 -37 5 -5 16 -9 25 -9 9 0 21
-20 33 -56 l17 -55 -25 -33 c-13 -18 -30 -56 -36 -84 l-12 -52 -61 -17 c-34
-10 -54 -19 -45 -21 9 -1 21 -14 27 -27 7 -14 18 -25 26 -25 8 0 26 -14 39
-31 l24 -31 7 26 c9 38 22 25 25 -26 2 -42 21 -81 21 -44 0 16 4 14 21 -8 15
-19 30 -26 55 -26 19 0 34 5 34 10 0 6 -4 10 -9 10 -5 0 -13 10 -16 23 -10 33
-49 107 -57 107 -4 0 -4 7 -1 17 5 12 3 14 -7 8 -8 -5 -11 -4 -6 3 3 6 2 13
-4 17 -5 3 -10 16 -10 28 0 28 11 15 47 -53 71 -136 96 -170 124 -170 15 0 32
7 39 15 8 10 18 12 29 6 9 -4 26 -7 39 -6 12 1 22 -2 22 -7 0 -4 5 -8 10 -8 6
0 10 7 10 15 0 7 8 19 18 24 16 10 15 10 -3 12 -17 1 -16 2 5 9 24 7 24 7 -10
17 l-35 9 24 13 c19 11 22 11 15 0 -4 -7 6 -3 23 9 17 12 36 22 41 22 6 0 13
4 16 9 4 5 -4 7 -16 3 -15 -3 -19 -2 -14 7 6 8 -5 10 -41 7 -52 -5 -88 6 -59
17 9 4 22 4 30 1 8 -3 17 -1 21 5 3 7 -2 11 -14 11 -12 0 -21 4 -21 8 0 12 80
43 92 36 4 -3 27 9 51 27 48 37 69 56 50 45 -18 -10 -16 9 1 23 11 9 15 9 18
-1 3 -8 7 -6 11 6 5 11 3 15 -5 10 -12 -8 -10 -1 14 48 19 39 24 35 20 -17 -3
-27 1 -52 8 -60 7 -8 16 -30 19 -47 6 -28 13 -34 51 -45 40 -12 44 -11 57 7
18 25 33 26 33 1 0 -25 17 -37 73 -51 26 -7 47 -17 47 -22 0 -6 -10 -8 -22 -5
-66 16 -114 33 -119 41 -4 4 -11 1 -16 -9 -9 -15 -11 -16 -16 -1 -4 9 -11 16
-17 16 -12 0 35 -93 56 -111 10 -8 12 -23 8 -50 -5 -26 -3 -39 5 -39 7 0 9 10
6 28 l-6 27 18 -28 c25 -38 41 -31 67 30 12 28 29 60 39 70 9 11 20 35 23 54
4 19 22 63 41 99 34 66 41 108 22 127 -7 7 -8 17 -1 29 5 11 9 41 8 69 -1 41
-4 50 -21 53 -14 2 -16 0 -7 -6 9 -6 6 -14 -14 -33 -31 -29 -54 -70 -55 -101
-1 -15 -3 -17 -6 -7 -2 9 -19 25 -38 35 -38 20 -45 34 -17 35 15 0 15 1 -2 8
-15 6 -5 15 54 50 43 26 79 41 91 38 12 -3 24 2 34 16 16 23 16 23 31 -13 6
-14 21 -46 32 -72 12 -26 26 -78 32 -115 6 -37 16 -79 21 -92 8 -20 12 -21 26
-10 15 12 16 12 8 -6 -5 -11 -10 -40 -11 -65 -2 -37 -2 -40 5 -15 7 28 8 26
21 -30 8 -33 13 -86 12 -117 l-1 -58 239 0 240 0 0 905 0 906 -82 -5 c-49 -2
-95 -11 -113 -20 -38 -20 -69 -20 -89 0 -17 17 -18 23 -16 103 2 67 11 90 52
138 37 42 68 103 68 133 0 26 43 75 80 90 16 7 30 16 30 21 0 17 32 9 51 -13
18 -23 18 -22 19 100 0 114 -1 122 -19 122 -11 0 -23 4 -26 10 -4 6 5 10 19
10 24 0 26 3 26 48 0 27 -3 52 -7 56 -5 4 -8 11 -9 14 0 4 -6 18 -13 32 -11
24 -11 24 -7 -7 6 -38 -5 -42 -34 -13 -11 11 -20 17 -20 13 0 -3 -9 2 -19 11
-11 10 -23 35 -26 57 -4 21 -11 39 -16 39 -5 0 -9 7 -9 15 0 8 -4 15 -10 15
-5 0 -10 5 -10 11 0 7 -8 17 -17 24 -15 11 -14 12 12 8 17 -4 40 -13 52 -21
13 -8 30 -12 38 -9 8 4 19 -1 24 -11 6 -10 11 -12 11 -4 0 24 19 11 25 -18 4
-16 13 -30 21 -30 11 0 14 18 14 85 0 61 -3 85 -12 85 -10 0 -9 3 1 9 9 6 -3
11 -37 16 -28 4 -55 4 -60 1 -5 -3 -80 -14 -168 -26 -87 -11 -207 -28 -266
-38 -92 -14 -106 -19 -97 -32 8 -11 12 -12 16 -2 2 6 9 12 14 12 6 0 8 -4 5
-9 -4 -5 0 -12 6 -15 10 -5 10 -7 1 -12 -16 -7 2 -44 21 -44 8 0 16 -9 19 -20
6 -25 8 -25 -49 5 -26 14 -55 25 -65 25 -11 0 -19 4 -19 9 0 5 -10 13 -22 17
-13 3 -29 12 -37 18 -8 6 -37 11 -65 12 -57 0 -131 33 -308 133 -265 150 -467
294 -793 567 -102 84 -117 93 -190 114 -276 76 -458 147 -539 211 l-28 22 30
16 c16 9 49 33 72 55 33 29 39 40 29 47 -9 5 -10 9 -2 9 17 0 229 -144 338
-229 30 -24 57 -42 60 -39 15 14 -432 328 -468 328 -3 0 -73 33 -155 74 -116
57 -163 75 -211 80 -45 5 -65 12 -74 27 -6 10 -18 19 -26 19 -8 0 0 13 18 32
17 17 31 35 31 39 0 10 -23 26 -44 30 -11 2 -21 9 -23 15 -2 7 6 10 23 6 19
-3 25 -1 20 7 -4 6 -15 11 -25 11 -10 0 -24 7 -31 15 -20 24 -22 12 -4 -30 13
-32 14 -43 3 -64 -7 -14 -12 -30 -10 -35 1 -4 -4 -14 -10 -22 -9 -11 -8 -19 5
-33 10 -11 23 -39 30 -63 10 -33 21 -47 47 -59 44 -21 179 -30 172 -12 -3 8
-22 13 -44 13 -24 0 -46 7 -57 18 -10 9 -31 27 -45 39 -15 13 -27 27 -27 31 0
18 115 0 158 -25 24 -14 42 -26 40 -28 -2 -2 -22 1 -45 7 -29 7 -47 7 -60 -1
-15 -9 -13 -10 17 -11 20 0 45 -6 56 -14 26 -19 108 -125 102 -132 -3 -2 -21
4 -39 15 -42 25 -119 53 -119 43 0 -4 18 -16 41 -26 45 -22 60 -37 27 -28 -14
3 -19 1 -14 -6 8 -14 -58 -44 -79 -36 -21 8 -19 24 7 45 11 11 17 19 11 19 -5
0 -19 -10 -31 -23 -42 -44 -26 -197 43 -407 18 -58 36 -114 39 -125 2 -11 4 0
3 25 -1 30 2 45 10 45 22 0 45 45 41 77 -4 24 0 31 19 39 12 5 23 15 23 24 0
8 9 15 19 15 10 0 21 7 25 15 6 17 36 21 36 5 0 -5 8 -10 18 -10 45 0 78 -91
55 -149 -16 -37 -10 -83 13 -102 16 -13 19 -50 5 -65 -6 -5 -5 -23 3 -44 14
-42 10 -70 -10 -70 -9 0 -23 -7 -32 -16 -23 -23 -141 -13 -181 15 l-29 21 -5
-21 c-3 -11 -1 -61 3 -111 6 -57 5 -124 -1 -174 -11 -89 -9 -182 12 -451 10
-133 10 -177 1 -195 l-12 -23 6 23 c3 13 2 89 -2 170 -5 81 -10 136 -12 122
-6 -42 -32 -142 -49 -187 -12 -34 -19 -41 -39 -38 -31 3 -30 -6 2 -44 19 -22
34 -31 57 -31 21 0 28 -3 21 -10 -20 -20 -72 11 -111 66 -22 32 -136 254 -130
254 2 0 18 -23 36 -50 18 -28 37 -48 42 -45 5 4 9 8 9 11 0 3 -4 2 -10 -1 -16
-10 -12 12 6 29 9 9 11 16 4 16 -6 0 -8 5 -5 10 4 6 10 8 15 5 15 -9 60 44 60
70 0 14 5 25 12 25 7 0 5 6 -4 18 -28 31 -31 60 -9 91 12 16 21 41 21 55 0 22
40 80 40 59 0 -13 20 21 20 35 0 6 -11 12 -24 12 -21 0 -25 5 -24 30 1 16 -4
36 -11 44 -7 8 -15 39 -18 68 -4 33 -14 64 -29 84 -13 17 -24 34 -24 38 0 4
-8 23 -17 44 -19 44 -20 46 -27 137 -3 39 -12 93 -19 121 -9 34 -10 58 -4 72
7 14 6 43 -2 84 -6 35 -12 69 -13 76 -1 6 -6 12 -11 12 -5 0 -7 -14 -3 -32 4
-24 3 -29 -4 -18 -5 8 -10 27 -10 43 0 21 5 27 21 27 18 0 20 4 14 27 -3 15
-11 31 -17 34 -6 4 -7 12 -4 18 4 6 2 11 -3 11 -6 0 -20 9 -30 19 -18 18 -18
20 -3 24 12 3 10 5 -6 6 -16 1 -22 6 -20 18 4 21 28 30 28 10 0 -17 68 -47
105 -47 14 0 25 5 25 11 0 5 -4 8 -9 5 -14 -9 -101 27 -101 41 0 7 -6 13 -12
13 -23 0 -76 121 -82 186 -6 58 -5 63 19 83 16 12 24 25 19 32 -4 8 -3 9 4 5
15 -9 34 37 34 82 0 23 -8 40 -26 57 -27 25 -42 66 -32 90 5 13 -223 15 -2029
15 l-2035 0 0 -284z m1487 -268 c30 -24 63 -49 73 -56 21 -16 170 -17 220 -2
52 15 73 12 101 -14 41 -38 65 -41 100 -12 17 14 36 26 43 26 23 0 79 -89 72
-114 -5 -21 -11 -23 -47 -20 -30 3 -48 11 -64 30 -25 29 -50 24 -42 -7 3 -11
0 -22 -6 -27 -7 -4 -18 -19 -25 -33 -11 -20 -19 -25 -38 -21 -13 2 -27 8 -30
13 -3 5 -18 9 -35 9 -23 0 -36 -9 -65 -50 -20 -27 -41 -50 -46 -50 -6 0 -17
-8 -25 -17 -19 -25 -64 -124 -61 -137 4 -21 -25 -121 -44 -154 -11 -18 -35
-43 -54 -56 -33 -22 -36 -22 -105 -10 -53 11 -81 11 -114 3 -40 -10 -48 -8
-110 22 -91 46 -96 57 -124 271 -9 74 -35 127 -70 144 -37 19 -53 52 -59 119
-3 45 0 75 13 108 15 40 22 46 61 57 52 15 94 8 133 -21 24 -18 37 -21 73 -15
23 4 45 10 48 15 8 12 102 40 138 40 24 1 48 -11 89 -41z m3216 23 c17 -7 24
-17 23 -33 -1 -20 -6 -23 -38 -23 -21 0 -38 3 -38 8 0 7 24 11 50 7 10 -1 7 6
-9 24 -27 28 -25 31 12 17z m-64 -122 c-22 -14 -33 -10 -19 6 7 8 17 12 22 9
6 -4 5 -10 -3 -15z m-102 -145 c-3 -3 -12 -4 -19 -1 -8 3 -5 6 6 6 11 1 17 -2
13 -5z m-1372 -189 c35 -6 53 -30 71 -100 31 -114 12 -164 -71 -190 -85 -27
-199 -6 -192 35 1 8 -4 14 -12 12 -7 -1 -24 4 -37 13 -13 8 -35 15 -49 15 -20
0 -25 5 -27 28 -5 78 12 173 31 170 3 -1 20 5 37 13 30 14 173 16 249 4z
m-937 -13 c23 -5 51 -17 61 -26 19 -18 86 -22 96 -6 7 12 52 13 57 2 2 -5 24
-23 50 -40 26 -18 53 -43 59 -55 7 -12 20 -28 31 -35 10 -7 18 -20 18 -28 0
-8 5 -14 11 -14 5 0 8 -3 6 -7 -3 -5 -1 -18 4 -30 7 -20 11 -21 39 -12 20 8
32 20 36 37 3 15 13 42 21 60 l14 33 21 -27 c14 -17 21 -39 20 -65 -1 -29 2
-39 13 -39 9 0 15 -10 15 -26 0 -14 5 -34 11 -46 23 -43 28 -107 8 -119 -6 -4
-16 -27 -20 -50 -4 -24 -14 -77 -22 -116 -8 -40 -11 -76 -8 -79 3 -4 -6 -4
-21 -2 -16 3 -28 1 -28 -3 0 -5 -8 -9 -17 -9 -10 0 -31 -7 -47 -15 -49 -26
-71 -19 -137 45 -34 33 -65 57 -70 54 -5 -3 -9 0 -9 7 0 8 -10 9 -31 5 -65
-13 -119 40 -119 116 0 15 -7 33 -15 42 -8 8 -15 28 -15 45 0 40 -16 48 -46
20 -54 -51 -121 -244 -154 -446 -4 -28 -15 -76 -24 -106 -18 -61 -35 -257 -25
-284 3 -10 1 -22 -5 -26 -17 -13 78 1 115 17 19 8 69 29 112 47 l79 33 54 -19
c37 -12 67 -32 91 -58 35 -39 35 -41 30 -103 -5 -53 -12 -70 -38 -99 -18 -19
-36 -35 -40 -35 -4 0 -31 -16 -60 -35 -29 -19 -65 -37 -80 -40 -16 -4 -31 -11
-34 -16 -4 -5 -28 -9 -56 -9 -40 0 -58 6 -99 36 -27 20 -50 40 -50 44 0 5 -9
11 -19 15 -10 3 -21 15 -24 27 -5 18 -8 19 -21 8 -9 -7 -16 -18 -16 -26 0 -7
-6 -28 -14 -46 -8 -18 -26 -71 -41 -118 -16 -47 -32 -90 -36 -95 -36 -47 -54
-310 -23 -336 8 -6 14 -24 14 -40 0 -24 -4 -29 -24 -29 -30 0 -42 15 -20 24
13 5 14 9 4 21 -7 8 -9 15 -4 15 5 0 -4 9 -21 20 -16 11 -46 20 -65 20 -34 0
-34 0 -12 -16 12 -8 20 -19 17 -24 -3 -5 -1 -19 6 -31 11 -21 11 -21 -14 -3
-14 11 -20 22 -15 25 7 4 5 10 -3 15 -8 5 -20 20 -27 33 -12 21 -12 23 2 18
29 -11 26 11 -3 23 -30 12 -159 8 -195 -6 -17 -6 -18 -3 -11 47 8 60 67 218
99 264 11 16 34 42 51 58 23 22 25 26 8 17 -13 -6 -23 -16 -24 -23 0 -7 -6 4
-13 23 -7 19 -11 41 -8 48 2 7 -4 12 -17 12 -12 0 -21 6 -21 15 0 8 5 15 11
15 6 0 8 9 4 20 -5 16 -2 20 19 20 14 0 26 -5 26 -11 0 -5 4 -8 9 -4 5 3 12 1
16 -4 3 -6 22 6 41 27 l35 37 -19 -45 c-11 -25 -22 -60 -26 -79 -5 -28 -4 -32
9 -21 7 6 17 32 21 56 5 35 16 54 55 93 57 57 63 93 29 163 -25 53 -25 73 0
98 12 12 18 25 15 30 -9 15 -25 12 -19 -4 3 -7 -6 -20 -20 -30 -29 -18 -56
-21 -56 -5 0 5 5 7 10 4 6 -4 5 5 -2 20 -7 16 -14 21 -18 14 -11 -17 -22 6
-18 39 3 23 0 27 -22 25 -14 -1 -18 1 -8 3 40 12 25 33 -55 73 -137 69 -150
78 -153 106 -1 14 2 25 7 25 5 0 9 11 9 24 0 15 11 33 27 46 34 26 98 111 117
154 22 50 35 106 42 181 8 85 47 237 70 274 45 71 130 116 234 124 55 4 78 10
87 23 7 10 13 21 13 24 0 28 103 34 198 12z m1791 -159 c-1 -10 0 -27 1 -38
l1 -20 9 20 c7 17 9 14 9 -13 1 -19 5 -31 11 -27 6 4 10 -16 9 -52 -1 -49 -2
-54 -9 -29 -5 16 -6 34 -3 39 3 6 1 7 -5 3 -7 -4 -9 -18 -6 -32 6 -25 -10 -35
-19 -11 -4 7 -6 6 -6 -5 -1 -17 -26 -16 -69 5 -20 10 -23 17 -20 61 3 51 3 51
41 56 21 3 38 8 37 13 -1 34 2 47 11 47 5 0 9 -8 8 -17z m-423 -143 c8 0 14
-4 14 -9 0 -5 -8 -8 -17 -7 -19 1 -34 34 -24 51 3 6 7 0 9 -12 2 -13 10 -23
18 -23z m24 36 c0 -3 -4 -8 -10 -11 -5 -3 -10 -1 -10 4 0 6 5 11 10 11 6 0 10
-2 10 -4z m-115 -26 c4 -6 12 -7 18 -3 8 4 7 1 -1 -9 -10 -13 -10 -17 0 -21 9
-4 9 -6 -2 -6 -8 -1 -20 10 -27 24 -11 24 -1 36 12 15z m55 -11 c0 -5 -4 -9
-8 -9 -5 0 -9 7 -9 15 0 8 4 12 9 9 4 -3 8 -9 8 -15z m107 5 c3 -8 12 -13 21
-9 13 5 41 -19 42 -37 0 -3 -25 6 -55 20 -30 15 -55 30 -55 35 0 14 41 7 47
-9z m63 4 c0 -6 3 -9 6 -5 3 3 11 2 18 -3 38 -31 71 -63 72 -71 1 -5 2 -14 3
-20 0 -5 6 -7 12 -4 16 10 70 -50 73 -81 2 -15 11 -33 21 -40 10 -8 15 -17 12
-21 -4 -4 -12 -2 -18 4 -6 6 -19 9 -28 6 -9 -4 -13 -3 -10 1 4 4 -3 18 -16 32
-13 14 -31 42 -41 62 -18 39 -67 92 -84 92 -6 0 -8 5 -5 10 3 6 2 10 -4 10 -6
0 -15 9 -21 20 -7 14 -7 20 0 20 5 0 10 -5 10 -12z m-170 -48 c0 -5 -2 -10 -4
-10 -3 0 -8 5 -11 10 -3 6 -1 10 4 10 6 0 11 -4 11 -10z m38 -15 c-3 -3 -9 2
-12 12 -6 14 -5 15 5 6 7 -7 10 -15 7 -18z m39 19 c-3 -3 -12 -4 -19 -1 -8 3
-5 6 6 6 11 1 17 -2 13 -5z m62 -59 c22 -7 35 -32 21 -40 -5 -3 -11 4 -15 15
-3 11 -17 23 -31 26 -13 3 -24 13 -24 21 0 12 2 12 15 -1 8 -8 24 -17 34 -21z
m81 14 c0 -5 -4 -9 -10 -9 -5 0 -10 7 -10 16 0 8 5 12 10 9 6 -3 10 -10 10
-16z m-172 -14 c-3 -3 -9 2 -12 12 -6 14 -5 15 5 6 7 -7 10 -15 7 -18z m185
-98 c-6 -10 -32 23 -33 42 0 7 8 3 19 -10 11 -13 17 -28 14 -32z m-232 16 c6
-7 20 -13 30 -13 10 0 20 -4 23 -9 4 -5 24 -12 45 -16 22 -3 47 -15 57 -26 9
-10 22 -19 27 -19 16 0 36 -33 37 -59 0 -27 -26 -61 -46 -61 -9 0 -10 -8 -2
-36 5 -20 7 -46 4 -57 -3 -11 0 -29 5 -39 7 -14 7 -23 -1 -33 -7 -8 -9 -19 -5
-25 3 -5 3 -15 -1 -21 -5 -8 -9 -8 -14 1 -6 9 -13 4 -26 -15 -14 -21 -15 -30
-6 -33 17 -5 15 -22 -3 -22 -8 0 -15 -5 -15 -11 0 -5 5 -7 11 -3 6 3 3 -6 -7
-21 -16 -25 -17 -28 -1 -37 22 -12 22 -29 0 -21 -12 5 -15 2 -10 -10 3 -9 2
-19 -3 -22 -6 -4 -10 -1 -10 4 0 6 -5 11 -11 11 -5 0 -8 -4 -4 -9 3 -5 1 -12
-5 -16 -5 -3 -10 0 -10 7 0 8 -5 6 -11 -4 -11 -20 -54 -24 -64 -7 -4 5 3 18
14 28 27 24 27 35 0 21 -11 -7 -27 -9 -35 -6 -9 3 -14 -1 -14 -14 0 -10 -12
-28 -26 -39 -15 -12 -23 -21 -18 -21 5 0 2 -4 -5 -9 -22 -14 -80 -4 -108 19
-14 11 -37 20 -50 20 -19 0 -24 4 -19 16 3 8 2 12 -4 9 -6 -3 -10 0 -10 7 0 7
-3 24 -5 38 -5 23 -4 23 6 -2 7 -18 18 -28 32 -28 12 0 38 -2 57 -6 23 -3 42
0 55 10 20 14 19 15 -10 26 -16 7 -40 16 -52 21 -13 5 -23 13 -23 19 0 5 -4
10 -10 10 -5 0 -10 -10 -10 -22 0 -18 -2 -20 -9 -9 -12 18 -3 41 16 41 33 0
169 -45 180 -60 10 -13 12 -13 18 2 8 20 -20 54 -30 38 -4 -7 -19 -3 -40 10
-18 11 -47 22 -63 23 -27 2 -43 27 -16 27 7 0 14 5 16 11 2 6 25 12 51 13 59
1 56 20 -4 24 -24 2 -52 11 -61 19 -13 11 -24 13 -38 7 -18 -8 -19 -11 -5 -37
l14 -28 -32 3 c-25 2 -33 8 -36 28 -1 14 -7 27 -11 30 -5 3 -11 29 -15 58 -6
55 7 97 28 89 7 -2 20 0 30 5 12 6 23 5 32 -2 8 -7 19 -9 26 -5 6 4 14 3 18
-2 3 -6 16 -13 28 -17 16 -5 25 -2 32 13 10 17 5 26 -30 61 -37 37 -58 45
-109 42 -9 0 -5 8 13 23 15 14 27 34 27 48 0 35 30 67 70 77 52 12 139 9 151
-7z m693 -4 c13 -6 26 -19 29 -28 3 -9 8 -24 12 -33 10 -25 -9 -23 -39 5 -22
20 -45 67 -32 67 3 0 16 -5 30 -11z m716 -45 c0 -2 -7 -4 -15 -4 -8 0 -15 4
-15 10 0 5 7 7 15 4 8 -4 15 -8 15 -10z m-830 -50 c0 -20 -4 -25 -17 -20 -9 4
-20 1 -24 -6 -4 -7 -11 -10 -14 -6 -7 7 34 58 47 58 4 0 8 -12 8 -26z m-174
-26 c1 -11 -3 -15 -12 -11 -17 6 -19 36 -2 31 6 -2 12 -11 14 -20z m-41 -27
c6 -11 -33 -36 -43 -27 -3 3 0 6 6 6 7 0 12 7 12 15 0 17 16 20 25 6z m15 -35
c9 -12 8 -15 -9 -13 -21 1 -26 8 -14 20 9 9 9 9 23 -7z m1587 -37 c24 -11 43
-24 43 -28 0 -5 9 -18 19 -30 36 -41 94 -271 84 -330 -2 -14 -20 -57 -39 -97
-38 -80 -55 -90 -118 -73 -63 17 -94 59 -101 136 -12 146 -19 193 -32 242 -21
74 -12 155 19 181 30 25 71 25 125 -1z m1463 -56 c19 -26 41 -58 49 -73 l14
-25 -27 25 c-15 14 -31 24 -34 23 -4 -1 -10 7 -14 18 -4 10 -4 19 0 19 3 0 -4
7 -16 16 -21 14 -31 44 -14 44 4 -1 23 -22 42 -47z m80 -7 c0 -5 -7 -3 -15 4
-8 7 -15 20 -15 28 0 13 3 12 15 -4 8 -10 15 -23 15 -28z m-195 24 c3 -5 1
-10 -4 -10 -6 0 -11 5 -11 10 0 6 2 10 4 10 3 0 8 -4 11 -10z m-2147 -43 c37
-22 52 -51 52 -102 0 -18 5 -35 11 -37 19 -6 -11 -78 -32 -78 -10 0 -21 5 -25
11 -4 8 -9 7 -15 -2 -6 -9 -9 1 -9 29 0 23 -4 42 -10 42 -5 0 -10 8 -10 19 0
10 -10 25 -22 34 -13 8 -34 24 -47 36 -29 25 -35 26 -55 6 -23 -23 -73 -19
-81 6 -10 29 2 37 62 43 28 2 59 8 68 13 22 13 72 4 113 -20z m2212 7 c0 -8
-4 -14 -8 -14 -4 0 -8 9 -8 19 0 11 4 17 8 15 4 -3 8 -12 8 -20z m-2720 -14
c0 -5 -2 -10 -4 -10 -3 0 -8 5 -11 10 -3 6 -1 10 4 10 6 0 11 -4 11 -10z
m-341 -74 c12 -30 -2 -91 -25 -117 -10 -11 -19 -33 -20 -47 0 -15 -4 -39 -8
-54 -6 -20 0 -41 24 -87 36 -66 58 -83 34 -25 -10 23 -11 33 -3 29 8 -5 9 -1
4 16 -6 20 -5 22 6 12 23 -22 33 -14 13 10 -11 12 -26 30 -34 40 -13 17 -12
17 18 0 18 -10 34 -23 36 -30 10 -25 58 -95 62 -90 3 2 -10 28 -27 56 -18 28
-30 53 -27 56 4 5 15 -9 114 -155 25 -36 68 -124 97 -199 28 -73 53 -125 55
-114 2 11 -6 44 -18 73 -11 29 -19 55 -16 57 5 5 45 -81 47 -101 1 -6 5 5 9
24 6 33 7 31 15 -28 11 -89 25 -87 27 5 1 48 3 63 6 38 l4 -40 13 49 c7 26 11
58 9 70 -3 13 -2 16 3 6 4 -10 11 2 19 35 12 44 13 45 8 10 -3 -28 -2 -36 5
-26 8 12 11 10 15 -10 8 -36 8 -45 7 -146 -1 -72 -4 -93 -15 -93 -8 0 -17 -7
-20 -16 -4 -9 -9 -14 -13 -11 -3 4 -13 1 -21 -6 -13 -10 -14 -8 -10 15 3 15 1
25 -3 22 -5 -3 -9 -12 -9 -20 0 -8 -4 -22 -10 -32 -24 -43 -37 -198 -30 -367
l7 -170 -31 -30 c-17 -16 -50 -65 -72 -109 -41 -78 -64 -104 -64 -71 0 13 -4
14 -21 4 -17 -9 -23 -8 -30 2 -5 8 -13 15 -19 15 -19 3 -21 4 -15 14 4 6 16 5
33 -1 l27 -10 -23 22 c-13 12 -20 24 -14 28 10 6 10 96 0 106 -3 3 -19 -22
-37 -55 -29 -53 -43 -66 -68 -57 -5 1 -7 4 -7 7 14 56 14 62 2 58 -19 -7 -19
-76 0 -83 13 -5 13 -8 -2 -24 -9 -10 -14 -25 -10 -35 9 -23 -12 -20 -29 4 -16
22 -29 17 -20 -8 5 -14 3 -15 -8 -4 -19 17 -29 15 -22 -6 5 -13 3 -14 -6 -6
-14 13 -51 7 -51 -8 0 -5 -5 -14 -10 -21 -47 -55 -50 -60 -39 -73 8 -9 5 -11
-10 -7 -16 4 -21 1 -21 -16 0 -11 -5 -21 -11 -21 -6 0 -9 -7 -6 -15 4 -8 -6
-24 -23 -38 -32 -28 -213 -127 -230 -127 -13 0 24 56 55 82 11 10 30 21 43 24
12 3 22 10 22 15 0 5 6 9 14 9 13 0 29 34 27 57 -1 6 15 17 36 23 43 14 75 39
67 51 -3 5 4 21 15 35 27 35 26 48 -4 62 -29 14 -30 19 -9 61 8 17 17 48 19
69 l3 37 -12 -40 c-14 -43 -46 -64 -101 -65 -26 0 -35 -8 -64 -57 -19 -32 -54
-81 -77 -109 -24 -28 -41 -53 -39 -56 3 -2 -13 -24 -35 -48 -25 -27 -36 -46
-29 -51 7 -4 3 -12 -10 -21 -11 -8 -18 -18 -14 -21 3 -4 -4 -7 -16 -7 -12 0
-51 -13 -88 -30 -36 -16 -70 -30 -75 -30 -11 0 -72 -42 -76 -52 -2 -5 -8 -8
-13 -8 -6 0 -7 5 -3 12 4 7 3 8 -4 4 -7 -4 -10 -19 -6 -34 5 -23 4 -25 -8 -11
-7 9 -26 19 -41 23 -23 5 -27 11 -23 29 3 12 3 16 0 8 -5 -10 -10 -5 -19 15
-13 32 -11 152 4 167 5 5 35 -9 71 -32 35 -23 71 -41 82 -41 10 0 18 -6 18
-12 1 -8 6 -6 14 5 7 9 21 17 31 17 34 0 90 35 157 98 54 51 67 69 64 88 -3
17 -1 21 11 17 12 -5 12 -7 1 -15 -10 -8 -10 -9 2 -5 8 2 39 33 68 68 30 35
62 74 73 86 16 18 18 30 13 76 -7 63 3 167 16 167 5 0 7 -8 4 -17 -3 -10 2 -7
10 7 l16 25 -1 -35 c0 -19 4 -51 10 -70 9 -32 10 -30 5 18 -6 49 -5 52 18 53
23 2 23 2 1 6 -25 5 -30 18 -10 27 6 3 -5 4 -25 1 -63 -10 -43 11 23 24 62 13
78 8 79 -23 0 -11 30 14 30 25 0 5 -7 5 -17 2 -12 -5 -14 -3 -8 7 7 11 -2 12
-41 7 -27 -4 -59 -9 -71 -13 -17 -5 -23 -2 -23 10 0 9 3 15 8 14 4 -1 17 3 28
10 12 6 23 10 25 8 2 -3 5 9 6 25 1 17 -2 27 -7 24 -9 -5 -15 16 -11 38 1 4
-7 3 -18 -2 -10 -6 -21 -7 -25 -4 -10 10 -7 -10 4 -27 8 -13 10 -12 10 3 0 9
5 17 10 17 14 0 13 -23 -2 -38 -10 -10 -17 -3 -35 30 -13 25 -22 36 -23 25 0
-10 -5 -15 -10 -12 -6 3 -14 -5 -19 -19 -8 -18 -15 -23 -30 -19 -12 3 -21 1
-21 -6 0 -6 6 -11 13 -11 8 0 14 -7 14 -15 0 -8 -4 -15 -9 -15 -4 0 -8 -6 -8
-14 0 -13 -68 -94 -71 -85 -10 30 2 72 47 166 30 62 54 118 53 125 0 9 -2 8
-6 -2 -7 -18 -49 -75 -80 -110 -13 -14 -23 -28 -23 -32 0 -3 -8 -14 -17 -24
-10 -9 -27 -30 -39 -46 -29 -39 -114 -112 -121 -104 -4 3 4 17 16 30 12 13 21
27 20 32 -4 21 2 28 11 14 7 -12 9 -10 7 8 -2 26 -4 27 -23 7 -9 -8 -23 -14
-32 -14 -15 1 -15 2 1 6 19 5 24 25 5 22 -28 -3 -48 2 -48 12 0 5 4 8 9 5 5
-3 14 1 21 9 11 13 10 14 -5 8 -15 -5 -17 -3 -12 10 6 15 3 16 -13 7 -11 -6
-20 -8 -20 -6 0 3 -11 1 -25 -4 -21 -8 -25 -7 -25 9 0 10 7 22 16 25 9 3 14
13 11 21 -4 9 -1 12 7 9 8 -3 17 -1 21 5 3 6 16 11 28 12 21 0 21 1 2 8 -11 5
-22 4 -23 0 -2 -5 -8 -7 -13 -4 -5 3 -18 1 -29 -5 -16 -9 -20 -8 -20 5 0 8 5
15 10 15 16 0 11 17 -7 24 -18 7 -63 -29 -63 -50 0 -8 -16 -11 -50 -10 -28 2
-52 5 -55 8 -5 4 33 43 95 97 45 39 21 40 -41 1 -46 -28 -49 -29 -46 -8 3 26
-16 34 -34 15 -16 -16 -61 -7 -89 18 -9 8 -21 15 -27 15 -6 0 -17 7 -24 16
-12 15 -10 16 18 10 l33 -8 -16 38 c-10 24 -12 40 -5 47 21 21 -20 75 -77 103
-30 15 -57 23 -61 18 -8 -12 -51 -16 -51 -5 0 5 -3 16 -6 25 -4 10 -1 16 9 16
8 0 33 18 56 40 22 22 37 40 31 40 -5 0 -10 9 -10 20 0 14 6 19 21 17 11 -2
24 -8 27 -14 5 -8 27 0 65 21 31 18 54 36 50 41 -5 4 -3 5 4 2 10 -7 110 47
124 67 4 4 14 -14 24 -40 9 -27 21 -59 26 -72 5 -13 10 -40 10 -60 2 -30 3
-32 6 -9 2 15 7 27 11 27 13 0 71 -60 77 -80 3 -11 12 -20 20 -20 8 0 16 -9
20 -19 3 -11 21 -31 40 -46 19 -14 35 -29 35 -33 0 -4 -47 -7 -105 -7 -114 0
-126 7 -84 51 l21 22 -21 7 c-15 4 -21 15 -22 38 -1 23 -4 16 -13 -26 -10 -55
-12 -57 -28 -41 -10 10 -35 19 -57 20 -22 1 -54 5 -71 9 -48 11 -34 -14 29
-50 30 -17 49 -35 47 -42 -3 -7 3 -17 14 -23 15 -8 21 -6 30 7 11 17 11 17 6
0 -4 -12 -2 -16 5 -11 6 4 15 1 19 -6 6 -9 12 -9 29 0 12 6 83 15 157 20 75 4
138 10 140 13 10 10 -38 19 -64 12 -19 -5 -24 -3 -16 4 5 6 58 23 117 38 59
15 107 30 107 34 0 4 -24 1 -52 -7 -29 -8 -76 -17 -103 -20 l-51 -5 -72 70
c-39 39 -72 76 -72 83 0 7 17 -4 38 -23 74 -71 202 -126 202 -88 0 6 9 5 20
-1 15 -8 30 -8 56 0 19 7 42 9 51 6 13 -5 14 -4 3 9 -11 13 -9 15 11 15 25 0
79 57 83 88 2 9 8 18 14 20 7 2 12 10 12 19 0 12 2 12 16 -1 14 -14 9 -22 -50
-82 -36 -36 -64 -69 -62 -73 2 -3 -2 -31 -10 -61 l-14 -55 5 53 c4 52 -7 71
-19 30 -11 -41 -6 -122 11 -193 15 -64 43 -127 43 -97 0 6 8 12 18 12 9 0 35
7 57 15 l40 16 -50 -7 c-27 -3 -54 -7 -60 -7 -5 -1 -15 32 -22 73 -12 65 -11
85 2 147 19 84 71 168 87 139 5 -9 13 -14 19 -11 5 4 9 -1 9 -9 0 -9 -4 -16
-10 -16 -5 0 -10 -10 -9 -22 0 -22 1 -22 9 -3 5 12 6 -8 3 -50 -3 -38 -1 -86
5 -105 9 -30 11 -20 13 70 1 58 3 124 4 148 1 23 -2 42 -7 42 -5 0 -7 4 -4 9
12 19 41 3 47 -25 4 -16 7 -22 8 -14 0 9 10 34 21 55 15 28 19 50 15 73 -3 17
-3 32 -1 32 9 0 64 -127 66 -152 4 -45 0 -59 -12 -52 -7 4 -5 -2 5 -13 18 -21
23 -78 8 -87 -5 -3 -7 -15 -4 -26 5 -18 6 -19 28 -2 22 16 39 47 36 65 -1 5 3
6 7 3 5 -3 7 -18 5 -33 -3 -23 -2 -25 7 -11 11 19 4 68 -11 68 -5 0 -9 12 -9
26 0 16 -4 23 -12 18 -6 -4 -8 -3 -4 4 3 5 -17 55 -45 109 -56 106 -65 143
-47 176 7 12 11 33 9 46 -2 16 1 21 9 16 7 -4 10 -21 8 -39 -2 -26 5 -39 45
-80 26 -26 47 -43 47 -38 0 6 -4 14 -10 17 -5 3 -10 11 -10 16 0 6 5 7 12 3 7
-4 8 -3 4 5 -4 6 -11 9 -16 6 -11 -7 -33 32 -25 45 3 6 3 15 -1 21 -5 8 -9 7
-14 -1 -5 -9 -8 -5 -8 11 1 13 -3 39 -7 58 -6 25 -5 32 3 27 7 -4 12 -14 12
-22 0 -20 44 -114 65 -139 16 -20 16 -20 11 5 l-5 25 19 -25 c34 -43 22 -11
-29 79 -47 82 -70 151 -52 151 5 0 11 14 13 30 l5 31 -34 -33 c-33 -32 -35
-32 -49 -14 -8 12 -10 24 -5 30 5 6 12 29 16 51 11 67 12 68 40 49 24 -16 25
-16 25 9 0 33 14 41 35 21 15 -16 16 -15 13 12 -2 16 -8 28 -15 27 -7 -2 -10
4 -7 12 9 22 23 18 33 -9z m-765 -42 c27 -24 52 -44 56 -44 4 0 13 -21 19 -47
7 -27 23 -64 35 -83 l23 -35 -32 -25 c-18 -14 -52 -51 -75 -82 -23 -32 -47
-58 -54 -58 -6 0 -31 -11 -56 -24 -32 -17 -47 -20 -56 -12 -8 8 -9 17 -2 29 7
14 4 24 -16 42 -14 13 -26 28 -26 32 0 5 -10 19 -23 33 -28 31 -57 101 -57
139 0 30 28 130 41 145 15 17 107 42 141 38 22 -2 50 -19 82 -48z m231 26 c3
-5 1 -10 -4 -10 -6 0 -11 5 -11 10 0 6 2 10 4 10 3 0 8 -4 11 -10z m744 -129
c17 -57 31 -109 30 -115 -1 -16 -79 215 -79 234 1 29 17 -11 49 -119z m-2544
11 c-3 -3 -11 0 -18 7 -9 10 -8 11 6 5 10 -3 15 -9 12 -12z m3655 -23 c0 -9 7
-19 15 -23 21 -8 18 -47 -6 -75 -17 -21 -24 -23 -47 -15 -35 12 -58 82 -36
113 18 25 74 25 74 0z m-3615 -27 c0 -18 -20 -15 -23 4 -3 10 1 15 10 12 7 -3
13 -10 13 -16z m4530 -6 c39 -16 125 -93 125 -110 0 -16 54 -76 68 -76 5 0 12
-5 14 -10 2 -6 29 -12 62 -14 50 -3 61 -7 82 -32 39 -46 46 -71 35 -128 -5
-28 -7 -54 -4 -59 2 -4 -4 -10 -14 -13 -10 -3 -27 -10 -38 -15 -13 -6 -42 -7
-76 -1 -69 11 -95 2 -136 -46 -24 -27 -32 -32 -33 -19 0 11 -8 17 -22 17 -24
0 -58 27 -58 46 0 7 -8 28 -19 46 -10 18 -21 53 -25 78 -11 83 -26 130 -44
130 -4 0 -15 7 -26 15 -14 10 -19 31 -22 85 -4 67 -3 71 19 79 14 5 27 17 30
25 8 20 37 20 82 2z m-4575 -17 c0 -5 -4 -9 -10 -9 -5 0 -10 7 -10 16 0 8 5
12 10 9 6 -3 10 -10 10 -16z m-290 1 c0 -5 -4 -10 -10 -10 -5 0 -10 5 -10 10
0 6 5 10 10 10 6 0 10 -4 10 -10z m360 -10 c0 -5 -5 -10 -11 -10 -5 0 -7 5 -4
10 3 6 8 10 11 10 2 0 4 -4 4 -10z m-48 -23 c-12 -13 -22 -29 -22 -36 0 -8 -6
-11 -16 -7 -9 3 -29 6 -45 6 -19 0 -29 5 -29 15 0 11 12 15 43 16 23 1 45 1
50 0 4 0 7 6 7 14 0 8 8 15 17 15 14 0 13 -3 -5 -23z m2195 -68 c-19 -35 -39
-91 -46 -124 -20 -95 -41 -145 -62 -145 -14 0 -19 7 -19 26 0 30 91 243 128
299 40 61 39 21 -1 -56z m-2558 34 c0 -25 -1 -25 -8 -8 -5 11 -7 23 -4 28 8
14 13 7 12 -20z m-610 -5 c0 -7 -4 -22 -9 -33 -7 -16 -8 -14 -7 12 1 18 5 33
10 33 4 0 7 -6 6 -12z m1056 -8 c-3 -4 0 -10 6 -12 6 -2 2 -14 -10 -30 -12
-14 -21 -31 -21 -36 0 -16 -60 -72 -77 -72 -14 0 -13 3 1 25 9 13 16 33 16 45
0 18 10 25 33 21 12 -2 8 47 -5 52 -7 2 -9 8 -5 13 4 5 12 2 18 -6 8 -13 11
-13 20 3 6 9 15 15 20 12 5 -4 7 -10 4 -15z m-130 -30 c8 -26 -3 -60 -20 -60
-15 0 -28 41 -19 64 9 22 31 20 39 -4z m2859 -15 c-4 -8 -8 -15 -10 -15 -2 0
-4 7 -4 15 0 8 4 15 10 15 5 0 7 -7 4 -15z m-2666 -36 c-1 -23 -8 -34 -27 -42
-14 -6 -40 -26 -57 -44 -17 -18 -37 -33 -45 -33 -11 1 -10 4 4 14 9 7 17 16
17 19 0 10 63 72 72 69 4 -1 14 9 20 23 15 32 17 32 16 -6z m1962 -18 c-4 -9
-20 -44 -36 -79 -16 -36 -38 -69 -53 -78 l-26 -15 25 22 25 22 -27 -7 c-17 -4
-28 -2 -28 4 0 6 -10 8 -25 4 -25 -6 -36 10 -12 19 7 3 5 6 -5 6 -11 1 -15 6
-12 16 4 11 -1 15 -17 16 -23 0 -23 1 -4 9 33 14 43 11 49 -14 l6 -24 40 19
c43 21 56 36 15 17 -21 -9 -29 -9 -42 5 -15 14 -13 17 23 33 21 9 42 16 47 16
4 -1 7 2 7 7 0 5 8 11 18 13 33 7 40 5 32 -11z m-2130 5 c0 -3 -4 -8 -10 -11
-5 -3 -10 -1 -10 4 0 6 5 11 10 11 6 0 10 -2 10 -4z m2804 -50 c-3 -15 -8 -25
-11 -23 -2 3 -1 17 3 31 3 15 8 25 11 23 2 -3 1 -17 -3 -31z m-1428 -51 c-40
-27 -66 -37 -66 -24 0 5 10 14 23 19 12 5 18 9 14 9 -22 2 6 18 31 18 l30 0
-32 -22z m-46 11 c0 -2 -7 -6 -15 -10 -8 -3 -15 -1 -15 4 0 6 7 10 15 10 8 0
15 -2 15 -4z m579 -73 c2 -2 -3 -3 -11 -3 -9 0 -19 7 -22 16 -6 15 -4 15 11 3
10 -7 20 -15 22 -16z m-711 -14 c-16 -10 2 -12 27 -3 13 5 14 8 3 15 -9 6 -9
9 -1 9 26 0 22 -20 -7 -35 -16 -8 -30 -12 -31 -8 0 5 -2 16 -4 25 -2 11 2 15
12 11 12 -5 12 -7 1 -14z m493 -13 c20 -14 45 -23 55 -20 11 3 28 -4 41 -16
33 -30 80 -37 98 -14 14 18 15 18 37 -8 13 -14 33 -29 46 -33 12 -3 22 -10 22
-15 0 -6 -11 -5 -26 0 -43 17 -99 12 -119 -10 -18 -19 -18 -19 -59 13 -22 17
-45 35 -51 39 -5 3 -30 25 -55 47 -50 45 -44 54 11 17z m465 -34 c-11 -10 -14
3 -8 33 l7 30 3 -28 c2 -16 1 -31 -2 -35z m-118 13 c-10 -22 -28 -35 -28 -20
0 5 33 45 37 45 1 0 -3 -11 -9 -25z m-2135 -22 c-7 -2 -19 -2 -25 0 -7 3 -2 5
12 5 14 0 19 -2 13 -5z m105 -151 c2 -12 -2 -22 -8 -22 -7 0 -9 -7 -6 -16 3
-8 2 -13 -2 -10 -14 9 -13 78 1 73 6 -2 13 -13 15 -25z m3713 -2 c10 -6 19
-17 19 -26 0 -8 9 -33 21 -56 31 -61 20 -117 -29 -152 -21 -14 -48 -26 -60
-26 -12 0 -28 -10 -35 -22 -17 -28 -22 -104 -7 -113 6 -3 7 -11 4 -17 -4 -6 2
-6 15 1 16 9 21 9 21 0 0 -6 9 -9 20 -6 11 3 22 2 25 -3 2 -4 21 -10 40 -13
63 -10 137 -103 126 -157 -5 -28 -33 -51 -54 -44 -16 5 -19 3 -14 -10 4 -10 3
-15 -3 -11 -6 3 -10 15 -10 26 0 10 -4 19 -10 19 -5 0 -10 10 -10 23 0 30 -10
41 -40 45 -14 2 -35 10 -47 18 -28 18 -33 18 -33 0 0 -12 -5 -12 -31 1 -43 21
-45 11 -7 -27 l33 -32 -32 16 c-30 15 -63 56 -46 56 4 1 -2 9 -14 19 -13 11
-27 31 -33 46 -5 14 -14 24 -19 21 -5 -4 -16 1 -25 9 -14 14 -17 14 -33 -4
-15 -19 -19 -19 -40 -6 -16 11 -24 12 -29 3 -4 -7 -3 -8 4 -4 19 11 14 -9 -8
-34 -11 -13 -23 -20 -27 -17 -7 8 -53 -55 -53 -72 0 -6 -5 -11 -11 -11 -6 0
-30 -21 -54 -47 l-43 -47 24 -45 c13 -25 25 -54 28 -63 3 -9 24 -22 47 -29 22
-7 43 -19 46 -26 9 -24 20 -14 20 20 0 37 -22 68 -43 60 -10 -3 -12 0 -8 10
10 26 60 38 112 26 35 -8 57 -7 84 2 30 10 41 9 60 -2 13 -8 40 -14 60 -14 28
0 37 -4 35 -15 -1 -10 8 -16 25 -18 21 -2 30 -11 38 -37 6 -19 8 -45 4 -57 -9
-25 -6 -60 5 -68 4 -3 14 -23 23 -45 15 -42 17 -102 5 -170 l-7 -40 16 35 c21
45 23 47 35 30 9 -12 9 -11 4 5 -18 48 -16 61 13 91 21 22 29 41 30 72 1 23
-3 42 -8 42 -6 0 -10 14 -10 31 0 20 -4 28 -12 23 -7 -4 -8 -3 -4 5 4 6 4 21
0 34 -8 21 -8 20 -15 -8 -6 -29 -7 -29 -8 8 -1 25 3 37 13 37 9 0 14 13 14 40
0 22 5 48 11 57 9 15 10 13 11 -14 0 -18 3 -33 8 -33 4 0 8 -29 8 -63 1 -35 6
-72 11 -83 7 -13 6 -38 -2 -76 -6 -32 -8 -63 -3 -70 12 -20 10 -86 -4 -94 -8
-5 -9 4 -5 33 8 48 -11 63 -38 33 -16 -18 -16 -18 4 -13 19 5 21 1 20 -38 -1
-48 -28 -129 -44 -130 -5 0 -1 -4 10 -9 20 -9 20 -9 -1 -9 -11 -1 -26 -7 -33
-14 -11 -10 -12 -9 -5 3 14 24 13 40 -1 40 -15 0 -25 -22 -25 -55 0 -12 -9
-33 -21 -46 -11 -13 -19 -17 -16 -9 19 63 19 66 4 47 -8 -10 -17 -13 -18 -8
-3 6 -10 7 -18 1 -13 -7 -13 -11 0 -26 9 -11 9 -15 2 -10 -16 9 -16 1 -2 -26
6 -11 15 -35 20 -52 l9 -31 -20 25 c-11 14 -20 28 -20 31 0 12 -32 19 -44 10
-7 -6 -25 -1 -51 15 -22 13 -46 27 -54 30 -7 4 -44 -7 -82 -24 l-69 -30 -32
22 c-30 20 -33 27 -31 71 1 26 7 51 13 55 27 17 4 248 -32 311 l-23 42 -6 -34
c-4 -19 -7 -27 -8 -19 0 8 -19 32 -41 54 -22 21 -40 47 -40 57 0 11 -4 19 -10
19 -5 0 -7 7 -4 15 4 8 3 15 0 15 -11 0 -50 -25 -63 -40 -11 -13 -12 -12 -13
8 0 25 -12 29 -28 9 -6 -7 -23 -14 -39 -15 -15 -1 -29 -7 -31 -12 -6 -17 -22
-11 -22 8 0 14 -4 13 -19 -7 -10 -14 -17 -31 -14 -38 5 -14 -45 -38 -56 -27
-3 4 0 9 7 11 21 8 13 25 -8 18 -14 -5 -20 -2 -20 9 0 9 -9 16 -20 16 -11 0
-20 4 -20 9 0 4 -11 24 -24 43 -31 47 -41 101 -21 118 20 17 19 27 -5 33 -12
3 -20 14 -20 26 0 17 8 21 50 27 42 6 50 10 45 24 -7 22 19 30 98 30 50 0 60
-3 64 -19 5 -20 39 -35 48 -21 6 9 -10 98 -19 107 -3 4 -6 -1 -6 -10 0 -9 -4
-17 -10 -17 -11 0 -3 26 17 55 7 11 13 39 13 62 0 43 0 43 -22 29 -27 -16
-219 -38 -232 -26 -19 18 9 29 97 37 50 4 100 7 110 5 22 -2 18 13 -24 106
l-29 62 -82 0 c-106 0 -97 9 13 11 78 2 82 3 54 15 -16 7 -36 13 -42 14 -7 0
-13 5 -13 10 0 6 -9 10 -21 10 -11 0 -17 -4 -14 -10 3 -5 0 -10 -8 -10 -9 0
-13 11 -13 35 1 28 4 34 19 29 9 -3 17 -1 17 4 0 6 24 12 54 14 44 2 53 0 48
-12 -5 -12 -3 -13 9 -4 17 14 73 11 91 -4 8 -6 27 -12 43 -15 20 -2 34 -12 43
-30 7 -15 28 -33 45 -41 25 -10 40 -30 70 -89 20 -41 37 -79 37 -84 0 -4 19
-19 41 -33 23 -14 45 -35 50 -47 10 -27 33 -31 26 -5 -11 40 -19 79 -22 110
-3 36 16 55 69 68 22 5 34 18 51 58 49 109 156 173 226 136z m989 -8 c0 -8 14
-31 30 -51 80 -95 142 -212 159 -297 11 -60 11 -63 -16 -108 -23 -38 -33 -45
-58 -46 -20 0 -42 -11 -63 -30 -34 -31 -48 -38 -37 -20 4 6 0 22 -9 35 -9 13
-16 32 -16 41 0 9 -11 29 -25 46 -14 16 -28 46 -31 67 -5 31 -13 41 -47 59
-23 12 -52 22 -64 22 -13 0 -32 9 -43 20 -11 11 -24 20 -29 20 -6 0 -22 11
-37 25 -30 27 -27 55 6 55 24 0 37 11 64 53 10 15 22 27 26 27 14 0 70 54 70
67 0 7 7 13 15 13 8 0 15 5 15 10 0 7 19 10 45 9 31 -2 45 -7 45 -17z m-2430
-32 c0 -5 -2 -10 -4 -10 -3 0 -8 5 -11 10 -3 6 -1 10 4 10 6 0 11 -4 11 -10z
m-1117 -120 c33 -70 56 -99 99 -126 43 -28 82 -99 75 -137 -4 -19 -4 -19 -6 4
-1 30 -37 87 -65 103 -68 39 -122 115 -130 183 -3 26 -3 41 0 33 3 -8 15 -35
27 -60z m3979 -20 c2 -6 13 -12 25 -13 13 0 25 -7 27 -14 3 -7 15 -13 26 -13
11 0 42 -11 68 -24 26 -13 63 -31 83 -41 65 -29 108 -84 57 -72 -13 3 -51 11
-86 18 -41 7 -59 15 -50 20 10 6 10 11 1 20 -8 8 -17 3 -34 -20 -25 -34 -49
-39 -72 -16 -11 11 -22 12 -51 4 -43 -12 -56 -6 -56 27 0 30 -6 30 -52 -1 -20
-14 -41 -25 -45 -25 -14 0 -9 48 5 62 11 11 15 10 23 -4 9 -16 12 -15 49 5 32
16 37 23 25 29 -28 16 -16 44 18 39 4 0 7 6 7 14 0 17 26 21 32 5z m-2242 -80
c-30 -5 -71 -8 -90 -8 -31 1 -30 2 10 8 25 4 65 7 90 7 44 0 44 0 -10 -7z
m2160 6 c0 -2 -9 -6 -20 -9 -11 -3 -18 -1 -14 4 5 9 34 13 34 5z m-4140 -21
c24 -14 24 -14 3 -15 -28 0 -53 10 -53 21 0 13 21 10 50 -6z m3518 -21 c18
-19 22 -35 23 -92 1 -73 -25 -179 -49 -199 -11 -9 -5 -15 33 -32 54 -24 59
-25 50 -11 -15 24 58 0 78 -25 4 -6 10 -6 15 2 5 8 20 5 56 -13 27 -14 51 -23
53 -20 3 2 34 -25 69 -61 44 -46 63 -71 59 -83 -10 -31 12 -70 39 -70 20 0 23
4 18 23 -5 18 -7 19 -10 4 -2 -9 -8 -15 -13 -11 -6 3 -5 11 2 20 9 11 9 18 1
26 -11 11 -5 38 9 38 5 0 9 -11 9 -25 0 -25 31 -65 50 -65 6 0 10 -4 10 -10 0
-5 -22 -10 -49 -10 -28 0 -53 -4 -56 -10 -19 -31 -73 18 -66 59 2 9 -3 12 -13
8 -10 -4 -13 -1 -10 8 6 15 -27 37 -48 33 -7 -2 -12 2 -11 8 1 6 -11 24 -27
39 -16 15 -26 34 -23 42 7 18 -25 53 -49 53 -10 0 -18 -7 -19 -17 0 -11 -3
-13 -6 -5 -2 6 -11 12 -19 12 -8 0 -14 5 -14 10 0 7 -6 7 -20 0 -11 -6 -32 -9
-47 -6 -16 2 -35 5 -43 6 -10 1 -9 4 5 10 14 6 3 8 -37 7 -32 0 -55 -5 -51
-10 3 -5 -4 -6 -16 -2 -14 4 -34 -1 -57 -14 -40 -24 -44 -25 -44 -12 0 5 9 13
21 16 11 4 18 9 16 12 -3 3 -14 0 -24 -5 -13 -8 -26 -6 -51 10 -18 11 -35 18
-38 15 -3 -3 -16 6 -29 19 -13 13 -34 24 -45 24 -12 0 -18 5 -15 10 3 6 1 10
-5 10 -22 0 -32 53 -20 106 10 49 23 69 69 107 12 10 19 22 16 27 -3 5 9 8 27
8 82 -2 157 15 188 42 36 32 73 30 108 -6z m-5708 -19 l25 -30 -33 29 c-17 17
-32 34 -32 40 0 6 3 6 8 1 4 -6 18 -23 32 -40z m1150 15 c0 -5 -4 -10 -10 -10
-5 0 -10 5 -10 10 0 6 5 10 10 10 6 0 10 -4 10 -10z m950 -50 c-6 -11 -20 -25
-32 -31 -21 -11 -21 -10 3 19 27 35 45 42 29 12z m-780 -30 c8 -5 12 -11 9
-14 -3 -3 -14 1 -25 9 -21 16 -8 20 16 5z m5243 -11 c22 -6 53 -19 69 -29 l31
-18 -44 4 c-72 8 -83 12 -97 34 -14 23 -11 24 41 9z m-4236 -16 c-3 -5 8 -9
24 -10 99 -7 150 -21 178 -50 14 -15 19 -23 11 -18 -9 5 -7 -1 5 -14 16 -19
20 -40 22 -125 l3 -103 -71 5 c-60 4 -72 2 -84 -14 -8 -11 -15 -27 -15 -37 0
-15 9 -17 58 -17 31 0 64 0 72 -1 8 -1 21 0 29 2 10 3 18 -11 27 -41 l12 -45
1 61 c1 56 12 84 35 84 5 0 1 -9 -10 -21 -16 -17 -16 -22 -4 -29 11 -7 12 -10
2 -10 -7 0 -10 -5 -7 -10 4 -6 10 -8 13 -6 6 4 4 -35 -7 -156 -1 -5 -5 -8 -11
-8 -5 0 -7 13 -3 32 4 22 3 29 -5 24 -7 -4 -12 -13 -12 -19 0 -7 -13 -39 -30
-72 l-29 -60 6 42 c5 36 1 48 -21 78 -15 19 -37 40 -49 46 -19 11 -18 8 6 -20
35 -42 34 -53 -4 -47 -35 5 -50 17 -31 23 6 3 12 9 12 14 0 6 -9 4 -20 -4 -11
-8 -32 -12 -46 -9 -20 4 -24 9 -20 26 2 11 1 37 -4 56 l-8 35 -3 -35 c-1 -19
-2 -41 -2 -47 1 -7 -10 -13 -23 -13 -15 0 -24 6 -24 15 0 8 9 15 20 15 12 0
20 7 20 16 0 9 -6 14 -12 12 -18 -6 -59 -69 -52 -79 3 -5 -2 -9 -10 -9 -9 0
-16 -5 -16 -12 0 -6 -3 -9 -6 -6 -3 4 0 17 7 29 12 23 12 23 -14 6 -48 -31
-95 8 -88 72 2 15 -1 21 -8 16 -6 -3 -9 -11 -6 -16 3 -5 -1 -6 -9 -3 -18 7
-20 22 -8 42 6 9 27 11 73 7 35 -3 78 -1 94 4 24 8 20 9 -22 4 -29 -3 -53 -3
-53 0 0 11 60 35 66 26 3 -5 16 -9 30 -9 28 0 29 -3 8 -36 -9 -13 -15 -27 -12
-29 9 -9 51 45 53 69 2 14 6 30 10 35 3 6 -2 11 -12 11 -11 0 -24 5 -30 11 -5
5 -39 11 -75 12 -59 2 -64 4 -54 20 6 9 14 17 18 17 10 0 10 36 2 79 -4 17
-13 31 -21 31 -7 0 -16 8 -19 18 -13 38 -28 62 -41 62 -10 0 -8 8 7 28 16 21
28 28 45 25 12 -3 26 0 29 6 4 5 13 8 21 4 8 -3 15 0 15 6 0 6 5 11 10 11 6 0
10 -7 10 -15 0 -8 4 -15 10 -15 5 0 6 7 3 17 -4 10 -2 14 5 9 6 -3 13 -2 17 4
3 5 11 10 16 10 6 0 8 -3 6 -7z m420 -18 c8 -22 -6 -33 -17 -15 -13 20 -12 30
0 30 6 0 13 -7 17 -15z m-1372 -5 c3 -5 2 -10 -4 -10 -5 0 -13 5 -16 10 -3 6
-2 10 4 10 5 0 13 -4 16 -10z m3369 -2 c-5 -7 -2 -9 8 -6 20 8 66 -51 49 -61
-7 -5 -2 -12 15 -20 15 -6 25 -14 22 -16 -7 -8 -58 19 -58 30 0 6 -11 22 -25
37 -26 29 -32 48 -14 48 5 0 7 -5 3 -12z m-3244 -13 c10 -13 9 -15 -9 -15 -12
0 -21 6 -21 15 0 8 4 15 9 15 5 0 14 -7 21 -15z m1745 -83 c-6 -24 -8 -25 -16
-9 -9 16 -39 25 -39 11 0 -3 7 -27 16 -54 9 -27 14 -53 12 -59 -1 -5 -30 11
-62 35 -48 36 -65 44 -85 39 -14 -4 -28 -9 -30 -11 -3 -2 5 -28 18 -57 12 -28
30 -72 39 -97 9 -25 17 -47 19 -48 1 -2 11 -1 22 3 24 7 23 35 -4 98 -20 47
-3 49 42 5 38 -37 41 -47 14 -45 -12 1 -22 11 -26 25 -3 14 -8 22 -10 20 -2
-2 2 -26 10 -53 20 -64 19 -65 -12 -66 -24 -2 -25 -2 -5 -6 12 -2 22 -9 22
-14 0 -6 -4 -8 -8 -5 -4 2 -14 1 -22 -5 -11 -6 -11 -9 -2 -9 10 0 10 -5 2 -20
-11 -21 -40 -28 -40 -8 0 7 -7 5 -17 -5 -10 -8 -33 -18 -52 -20 l-34 -6 34 36
c19 19 44 39 56 44 26 10 24 21 -31 147 -20 46 -36 87 -36 91 0 4 16 13 36 19
33 10 40 8 86 -24 27 -20 52 -33 55 -31 2 3 -3 22 -11 42 -21 50 -21 52 19 65
20 7 36 19 36 28 1 9 4 6 6 -7 3 -12 2 -35 -2 -49z m-1835 27 c0 -6 -4 -7 -10
-4 -5 3 -10 11 -10 16 0 6 5 7 10 4 6 -3 10 -11 10 -16z m1680 5 c0 -8 -5 -12
-10 -9 -6 4 -8 11 -5 16 9 14 15 11 15 -7z m-320 -4 c0 -5 -4 -10 -10 -10 -5
0 -10 5 -10 10 0 6 5 10 10 10 6 0 10 -4 10 -10z m-1170 -36 c0 -8 5 -14 10
-14 6 0 10 -5 10 -11 0 -6 -5 -7 -12 -2 -25 15 -39 12 -33 -8 4 -10 2 -19 -4
-19 -6 0 -10 17 -8 38 2 31 5 38 20 34 9 -2 17 -11 17 -18z m1485 16 c13 -6
15 -9 5 -9 -8 0 -22 4 -30 9 -18 12 -2 12 25 0z m3825 -20 c0 -5 -4 -10 -10
-10 -5 0 -10 5 -10 10 0 6 5 10 10 10 6 0 10 -4 10 -10z m-5470 -21 l35 -21
-20 22 -20 23 34 -19 c33 -18 102 -101 114 -136 10 -29 -1 -21 -18 13 -12 23
-19 28 -29 20 -9 -8 -18 -4 -34 14 -12 13 -17 27 -12 30 5 3 15 -6 23 -21 8
-16 17 -22 21 -16 3 6 -3 20 -15 31 -17 16 -26 18 -36 10 -12 -11 -17 -5 -14
15 1 5 -5 6 -14 2 -9 -3 -13 -2 -10 3 3 5 -3 12 -14 16 -21 6 -49 35 -35 35 5
0 25 -10 44 -21z m1788 -20 c-3 -8 -7 -3 -11 10 -4 17 -3 21 5 13 5 -5 8 -16
6 -23z m3187 11 c3 -5 -3 -10 -14 -10 -11 0 -23 5 -26 10 -3 6 3 10 14 10 11
0 23 -4 26 -10z m418 -7 c-13 -2 -33 -2 -45 0 -13 2 -3 4 22 4 25 0 35 -2 23
-4z m80 0 c-7 -2 -19 -2 -25 0 -7 3 -2 5 12 5 14 0 19 -2 13 -5z m-3887 -111
c24 -57 44 -107 44 -112 0 -6 -10 -10 -22 -9 -13 0 -17 3 -10 6 6 2 12 11 12
19 0 9 -4 12 -10 9 -6 -4 -7 1 -3 11 4 12 3 15 -5 10 -8 -4 -10 -2 -6 7 4 12
-46 140 -60 154 -2 2 -15 -1 -30 -6 -15 -6 -26 -7 -26 -1 0 9 34 18 59 16 7 0
33 -47 57 -104z m-1625 86 c59 -17 112 -69 154 -150 37 -70 39 -76 39 -178 1
-67 -3 -112 -11 -125 -11 -17 -12 -14 -8 25 4 32 2 41 -5 30 -5 -8 -10 -22
-10 -31 0 -9 -7 -19 -15 -23 -8 -3 -15 -15 -15 -27 0 -13 -5 -19 -13 -16 -13
5 -31 -11 -33 -30 -3 -32 -4 -34 -23 -23 -16 8 -22 6 -30 -7 -5 -10 -6 -24 -1
-33 6 -12 4 -16 -10 -16 -10 0 -16 4 -14 8 3 4 0 8 -5 8 -6 0 -11 -4 -11 -9 0
-5 -10 -11 -22 -13 -13 -2 -22 -9 -20 -16 1 -6 -2 -12 -8 -12 -5 0 -10 7 -10
15 0 8 -5 15 -10 15 -6 0 -10 7 -8 16 2 10 -3 19 -9 21 -7 3 -13 0 -13 -6 0
-6 -4 -11 -10 -11 -23 0 5 30 29 31 19 0 15 4 -18 12 -25 7 -47 18 -49 26 -4
11 1 12 19 6 13 -4 46 -8 73 -9 42 -1 52 3 69 26 15 20 18 34 13 63 -11 56
-45 85 -101 85 -28 0 -44 4 -40 10 8 12 79 4 105 -12 22 -14 50 -76 50 -111 0
-32 11 -67 20 -67 10 0 5 69 -8 123 -14 54 -67 100 -109 95 -37 -4 -39 -3 -19
18 11 11 21 12 42 4 15 -6 29 -8 32 -5 11 10 -33 35 -55 31 -32 -5 -46 17 -39
61 10 59 7 86 -9 103 -13 12 -17 13 -24 2 -7 -11 -9 -11 -14 2 -4 9 -18 16
-34 16 l-28 1 24 13 c14 8 30 12 35 10 17 -6 49 24 43 40 -6 14 -30 16 -43 3
-4 -4 -12 -7 -18 -7 -6 0 -2 7 8 15 24 18 113 20 167 3z m1789 -42 c0 -10 -34
2 -38 13 -3 10 0 10 17 2 11 -7 21 -13 21 -15z m-2716 -1 c-4 -8 -8 -15 -10
-15 -2 0 -4 7 -4 15 0 8 4 15 10 15 5 0 7 -7 4 -15z m5866 -6 c0 -5 -7 -9 -15
-9 -15 0 -20 12 -9 23 8 8 24 -1 24 -14z m164 -43 c17 -7 50 -11 73 -10 45 2
55 -11 46 -60 -4 -19 -11 -26 -29 -26 -13 0 -28 -8 -33 -18 -9 -16 -15 -17
-55 -8 -38 9 -46 15 -46 33 0 20 -5 23 -35 23 -40 0 -41 4 -18 75 l17 52 25
-25 c13 -13 38 -30 55 -36z m76 33 c0 -5 -7 -9 -15 -9 -8 0 -15 7 -15 15 0 9
6 12 15 9 8 -4 15 -10 15 -15z m-6133 -51 c-3 -8 -6 -5 -6 6 -1 11 2 17 5 13
3 -3 4 -12 1 -19z m683 19 c0 -2 -10 -12 -22 -23 l-23 -19 19 23 c18 21 26 27
26 19z m4660 -12 c7 -8 8 -15 2 -15 -5 0 -15 7 -22 15 -7 8 -8 15 -2 15 5 0
15 -7 22 -15z m-2650 -14 c0 -4 -6 -8 -14 -8 -8 0 -12 6 -9 14 5 13 23 9 23
-6z m2743 -21 c3 -11 2 -20 -3 -20 -4 0 -10 11 -12 25 -6 29 7 25 15 -5z
m-2683 -1 c0 -5 -4 -9 -10 -9 -5 0 -10 7 -10 16 0 8 5 12 10 9 6 -3 10 -10 10
-16z m-2755 -11 c-11 -36 -25 -45 -25 -17 0 27 7 39 22 39 5 0 6 -10 3 -22z
m1539 7 c3 -8 1 -15 -3 -15 -5 0 -11 7 -15 15 -3 8 -1 15 3 15 5 0 11 -7 15
-15z m3836 4 c0 -6 -4 -7 -10 -4 -5 3 -10 1 -10 -5 0 -6 -4 -8 -10 -5 -16 10
-11 21 10 22 11 1 20 -3 20 -8z m-4750 -38 c-5 -11 -15 -32 -20 -47 -6 -15
-13 -24 -16 -21 -6 5 33 87 42 87 2 0 0 -9 -6 -19z m175 -1 c3 -5 2 -10 -4
-10 -5 0 -13 5 -16 10 -3 6 -2 10 4 10 5 0 13 -4 16 -10z m4635 -18 c0 -15 -2
-15 -10 -2 -13 20 -13 33 0 25 6 -3 10 -14 10 -23z m-4660 -3 c0 -5 5 -7 12
-3 7 4 8 3 4 -4 -9 -15 -43 -16 -51 -2 -4 6 1 7 11 3 12 -4 15 -3 10 5 -4 7
-2 12 3 12 6 0 11 -5 11 -11z m2451 -6 c8 -8 8 -13 0 -17 -6 -4 -11 -2 -11 3
0 6 -6 11 -14 11 -8 0 -18 5 -21 10 -8 13 32 7 46 -7z m-2028 -17 c-4 -17 1
-27 16 -35 16 -9 21 -9 21 1 0 8 6 6 18 -5 14 -15 15 -19 3 -26 -11 -7 -10
-11 5 -20 17 -11 16 -11 -6 -7 -14 3 -19 3 -12 0 25 -12 11 -25 -25 -22 l-37
3 3 60 c2 54 7 75 15 75 2 0 1 -11 -1 -24z m2067 3 c0 -6 -4 -7 -10 -4 -5 3
-10 11 -10 16 0 6 5 7 10 4 6 -3 10 -11 10 -16z m-1746 -67 c10 -10 16 -12 16
-5 0 7 -4 15 -10 18 -5 3 -10 14 -9 23 0 12 3 11 9 -5 5 -13 14 -23 21 -23 6
0 9 -6 6 -14 -3 -7 0 -19 6 -25 17 -17 1 -24 -23 -11 -24 13 -51 68 -49 102 1
17 3 14 9 -11 4 -18 15 -40 24 -49z m1036 68 c0 -5 -4 -10 -10 -10 -5 0 -10 5
-10 10 0 6 5 10 10 10 6 0 10 -4 10 -10z m745 -29 c-6 -5 -25 10 -25 20 0 5 6
4 14 -3 8 -7 12 -15 11 -17z m-2625 9 c0 -5 -4 -10 -10 -10 -5 0 -10 -5 -10
-11 0 -13 40 -8 87 12 40 16 51 7 29 -26 -9 -14 -14 -30 -10 -36 4 -6 -6 -21
-22 -34 -26 -21 -29 -29 -29 -84 0 -43 3 -60 12 -57 12 5 28 -23 18 -32 -3 -3
-5 1 -5 9 -1 10 -4 8 -11 -4 -10 -17 -12 -17 -24 7 -9 17 -11 42 -6 78 8 61
-8 147 -26 141 -13 -5 -27 32 -18 47 8 13 25 13 25 0z m4552 -44 c14 -3 33 -9
42 -12 11 -4 16 0 17 12 0 12 3 14 6 6 5 -12 41 -32 71 -38 8 -1 22 -10 33
-19 10 -10 25 -15 34 -11 9 3 13 2 10 -4 -3 -6 -3 -15 1 -22 5 -8 10 -6 15 8
6 16 8 15 8 -8 1 -15 6 -30 11 -33 6 -4 8 -10 6 -14 -3 -4 7 -36 21 -72 23
-57 25 -73 20 -149 -5 -82 2 -120 24 -120 5 0 7 17 3 40 -5 33 -4 40 10 40 9
0 16 -8 17 -17 0 -11 2 -13 6 -5 3 7 -3 24 -12 38 -16 24 -15 27 10 60 14 19
30 34 35 34 17 0 21 -42 10 -113 -19 -122 -16 -117 -55 -117 -31 0 -35 -3 -41
-35 -7 -39 -19 -45 -29 -16 -6 19 -7 19 -26 3 -10 -9 -19 -22 -19 -29 0 -7 -6
-10 -14 -7 -7 3 -21 -6 -30 -20 -9 -15 -13 -26 -9 -26 4 0 -2 -6 -13 -14 -14
-11 -21 -11 -26 -3 -5 8 -8 5 -8 -8 -1 -17 -2 -18 -10 -4 -10 17 -59 15 -71
-4 -4 -5 -15 2 -24 17 -17 25 -19 26 -37 9 -18 -16 -19 -16 -24 4 -3 12 -17
24 -30 27 -40 10 -27 25 17 20 34 -4 44 -1 65 21 13 14 24 27 24 28 0 1 -13 3
-30 4 -37 3 -113 23 -108 29 3 2 47 4 99 5 60 1 104 6 122 15 27 15 28 15 21
-13 l-6 -28 21 30 c29 42 26 61 -15 111 -47 58 -61 56 -24 -3 17 -26 30 -51
30 -56 0 -6 -33 -7 -82 -2 -46 4 -102 7 -126 7 -33 0 -40 3 -32 13 8 9 7 15
-2 19 -7 3 -2 4 12 0 36 -8 127 -15 113 -8 -24 11 -15 36 12 32 13 -2 23 2 22
7 -1 6 -19 10 -39 11 -21 1 -44 7 -52 13 -8 7 -24 10 -35 6 -10 -3 -22 -1 -26
5 -5 7 -14 0 -26 -19 -10 -17 -25 -31 -32 -31 -8 0 -14 -6 -15 -12 0 -7 -4
-23 -7 -35 -5 -15 -2 -24 12 -31 15 -8 18 -19 15 -46 -8 -66 -43 -32 -46 44
-2 35 -9 56 -23 72 -28 30 -56 109 -43 122 7 7 22 6 43 -2 41 -15 58 -15 93
-2 26 10 26 11 8 25 -18 14 -18 14 4 15 12 0 22 -4 22 -10 0 -5 9 -10 21 -10
18 0 20 -4 15 -32 -5 -25 -4 -28 3 -13 15 31 13 93 -4 125 -18 34 -44 44 -110
41 -48 -3 -49 -2 -32 16 9 11 17 25 17 31 0 7 5 12 10 12 6 0 6 7 -1 19 -20
30 16 70 64 71 24 0 40 5 43 15 4 10 10 12 18 7 6 -5 23 -12 38 -16z m788 15
c0 -15 -19 -23 -38 -16 -14 5 -14 7 -2 15 19 12 40 13 40 1z m-2230 -6 c0 -4
-7 -20 -17 -38 -15 -30 -15 -31 0 -18 12 9 17 10 19 2 3 -29 2 -36 -7 -36 -5
0 -16 -4 -23 -9 -17 -10 -27 1 -36 36 -5 21 -1 30 22 47 27 20 42 26 42 16z
m175 -15 c3 -5 1 -10 -4 -10 -6 0 -11 5 -11 10 0 6 2 10 4 10 3 0 8 -4 11 -10z
m-1045 -8 c0 -13 -12 -22 -22 -16 -10 6 -1 24 13 24 5 0 9 -4 9 -8z m-2733
-34 c-3 -8 -6 -5 -6 6 -1 11 2 17 5 13 3 -3 4 -12 1 -19z m3853 12 c0 -5 -4
-10 -10 -10 -5 0 -10 5 -10 10 0 6 5 10 10 10 6 0 10 -4 10 -10z m2030 -15 c0
-45 -52 -52 -94 -14 -18 17 -17 18 20 24 22 4 44 8 49 10 21 7 25 4 25 -20z
m-1990 -14 c0 -9 10 -21 23 -26 33 -15 34 -84 4 -177 -22 -63 -28 -73 -51 -76
-22 -3 -26 -8 -26 -38 0 -27 5 -37 25 -46 14 -6 25 -17 25 -25 0 -16 -12 -17
-27 -2 -16 16 -117 40 -121 29 -4 -11 -55 -40 -70 -40 -6 0 -12 18 -14 41 l-4
40 56 -2 c70 -3 96 6 104 34 11 41 23 52 40 38 8 -7 19 -10 25 -7 13 9 32 96
27 131 -3 17 -5 39 -5 50 -1 17 -3 18 -11 5 -15 -22 -26 1 -28 55 -2 36 1 43
13 39 8 -4 15 -14 15 -23z m-372 -1 c-14 -22 -24 -19 -15 5 4 8 11 15 17 15 6
0 6 -7 -2 -20z m-2162 -6 c17 -14 17 -15 1 -10 -10 3 -28 6 -38 6 -11 0 -17 5
-14 10 9 15 28 12 51 -6z m-638 -13 c6 -1 12 -5 12 -9 0 -5 -10 -8 -22 -6 -13
1 -39 3 -58 4 -28 1 -31 3 -15 9 11 5 31 7 45 5 14 -1 31 -3 38 -3z m662 -20
c0 -3 -29 -6 -64 -6 -35 0 -62 3 -60 7 2 3 20 6 40 6 19 0 38 2 40 5 7 6 44
-4 44 -12z m-1304 -20 c52 -24 59 -35 44 -70 -10 -25 -90 -80 -90 -62 0 4 -10
18 -22 31 -34 36 -34 90 -1 90 9 0 13 6 9 15 -7 20 10 19 60 -4z m1707 9 c-14
-6 -32 -6 -45 0 -19 7 -15 9 22 9 37 0 41 -2 23 -9z m1415 -85 c3 -48 0 -75
-6 -75 -6 0 -10 8 -10 18 1 9 -4 43 -11 74 -13 61 -8 89 12 69 7 -7 13 -45 15
-86z m2642 66 c14 -27 13 -31 -10 -31 -15 0 -20 7 -20 25 0 30 15 33 30 6z
m-4140 -16 c0 -8 -9 -15 -20 -15 -11 0 -20 5 -20 11 0 5 5 7 10 4 6 -3 10 -1
10 4 0 6 5 11 10 11 6 0 10 -7 10 -15z m118 -2 c3 -9 -12 -13 -52 -13 -52 0
-66 7 -49 24 12 11 96 2 101 -11z m-426 -5 c8 -7 38 -47 65 -88 38 -58 53 -93
67 -155 29 -133 36 -153 51 -159 8 -3 15 -12 15 -20 0 -18 62 -32 82 -20 20
13 119 22 115 10 -2 -5 -16 -11 -33 -13 -52 -6 -104 -26 -104 -41 0 -10 8 -13
26 -9 30 5 104 -21 104 -37 0 -6 -4 -28 -9 -49 -8 -34 -7 -38 14 -43 13 -3 33
-17 46 -30 l22 -24 -45 0 c-26 0 -53 -3 -62 -6 -23 -9 -32 23 -12 45 13 14 14
21 5 27 -8 4 -10 3 -5 -4 5 -8 0 -12 -13 -12 -11 0 -22 4 -25 9 -7 10 17 21
45 21 24 0 24 6 2 29 -19 19 -89 38 -78 21 3 -6 0 -10 -8 -10 -7 0 -20 11 -27
25 -7 14 -18 25 -23 25 -6 0 -2 9 8 20 19 21 7 28 -13 8 -9 -9 -23 -1 -62 37
-28 27 -48 55 -46 62 3 8 -1 10 -11 6 -11 -4 -14 -2 -9 5 4 7 19 12 34 12 l26
0 -21 21 c-21 21 -36 24 -105 19 l-38 -3 -1 -61 c-1 -34 -3 -54 -6 -45 -2 9
-14 22 -27 28 -19 11 -25 26 -36 99 -7 48 -16 92 -20 97 -5 6 -15 36 -23 67
-14 55 -14 57 3 48 17 -9 18 -7 11 18 -4 15 -6 35 -3 44 6 31 94 49 124 26z
m4078 2 c12 -8 11 -10 -7 -10 -13 0 -23 5 -23 10 0 13 11 13 30 0z m-4902 -30
c4 -21 2 -22 -12 -7 -19 19 -21 40 -3 35 6 -3 14 -15 15 -28z m1058 2 c-4 -3
-14 2 -24 12 -16 18 -16 18 6 6 13 -6 21 -14 18 -18z m232 -12 c-6 -22 -15
-40 -20 -40 -5 0 -6 9 -3 20 6 19 4 19 -31 -5 -44 -30 -63 -31 -90 -7 -11 11
-25 21 -32 23 -7 2 17 4 52 5 48 0 70 5 92 22 40 30 43 28 32 -18z m2025 -41
c-5 -18 -15 -35 -22 -37 -13 -4 -13 -3 6 91 l6 32 9 -27 c5 -15 5 -40 1 -59z
m1779 49 c-9 -9 -15 -9 -24 0 -10 10 -10 15 2 22 20 12 38 -6 22 -22z m56 12
c-7 -11 -18 -20 -25 -20 -17 0 -16 5 3 24 22 23 37 20 22 -4z m-4558 -4 c0 -3
-4 -8 -10 -11 -5 -3 -10 -1 -10 4 0 6 5 11 10 11 6 0 10 -2 10 -4z m11 -19
c-10 -9 -11 -8 -5 6 3 10 9 15 12 12 3 -3 0 -11 -7 -18z m4744 10 c10 -8 14
-16 9 -20 -5 -3 -20 3 -33 14 -27 22 -6 27 24 6z m-3185 -2 c0 -2 -18 -14 -40
-25 -22 -11 -40 -18 -40 -15 0 2 17 13 38 24 42 23 42 23 42 16z m2209 -19 c8
-10 8 -16 -3 -25 -21 -18 -73 9 -60 31 8 13 51 9 63 -6z m-3745 -22 c5 -14 4
-15 -9 -4 -17 14 -19 20 -6 20 5 0 12 -7 15 -16z m1271 6 c3 -6 -4 -10 -17
-10 -18 0 -20 2 -8 10 19 12 18 12 25 0z m705 -35 c0 -45 16 -84 37 -92 18 -7
33 -22 33 -35 0 -4 -26 -14 -57 -23 -81 -24 -113 -42 -113 -65 0 -11 5 -20 10
-20 6 0 10 -7 10 -15 0 -8 3 -14 8 -14 44 7 37 -37 -12 -72 -46 -34 -66 -37
-66 -9 0 13 -5 18 -15 14 -8 -4 -15 -10 -15 -16 0 -5 4 -7 9 -4 5 3 11 -1 15
-9 3 -8 -3 -19 -14 -25 -26 -14 -33 -13 -26 5 7 20 -4 19 -19 -2 -7 -9 -30
-22 -51 -28 -38 -11 -40 -10 -66 25 -18 24 -25 44 -21 58 3 12 8 22 12 22 3
-1 26 -5 50 -9 27 -6 55 -5 70 1 25 9 25 10 7 24 -11 8 -34 14 -50 15 -29 1
-28 2 9 10 27 7 41 6 43 -1 2 -5 11 -10 19 -10 11 0 14 -6 10 -21 -10 -38 27
-16 40 24 11 33 11 40 -5 56 -19 19 -112 61 -136 61 -9 0 -17 3 -17 8 -1 4 -3
16 -4 28 -1 12 -10 36 -19 54 -30 62 -27 64 101 74 39 3 80 9 92 13 11 5 45 9
76 10 l55 2 0 -34z m2628 19 c18 -3 27 -12 19 -20 -8 -9 -67 19 -61 28 3 5 11
5 17 1 7 -4 18 -8 25 -9z m-3078 -18 c0 -16 -44 -26 -104 -25 -40 1 -40 1 24
19 82 23 80 23 80 6z m-1740 0 c0 -3 -4 -8 -10 -11 -5 -3 -10 -1 -10 4 0 6 5
11 10 11 6 0 10 -2 10 -4z m247 -48 c-2 -13 -4 -5 -4 17 -1 22 1 32 4 23 2
-10 2 -28 0 -40z m766 5 c25 -50 26 -83 2 -63 -11 9 -12 7 -8 -9 3 -10 -2 -44
-11 -75 -14 -47 -21 -57 -44 -62 -15 -4 -32 -11 -38 -16 -16 -12 -44 18 -44
47 0 27 19 75 30 75 8 0 23 39 21 53 -1 4 8 18 19 30 l21 22 21 -25 c18 -23
18 -22 -2 12 -17 30 -18 37 -6 32 12 -5 15 -2 10 10 -13 35 7 13 29 -31z
m-1163 17 c0 -5 -4 -10 -10 -10 -5 0 -10 5 -10 10 0 6 5 10 10 10 6 0 10 -4
10 -10z m990 -5 c0 -8 -7 -15 -15 -15 -16 0 -20 12 -8 23 11 12 23 8 23 -8z
m-853 -17 c-3 -8 -6 -5 -6 6 -1 11 2 17 5 13 3 -3 4 -12 1 -19z m5287 0 c8
-13 17 -34 20 -48 6 -22 6 -23 -5 -6 -6 10 -20 27 -30 37 -11 11 -19 24 -19
29 0 18 19 11 34 -12z m-444 -2 c0 -3 -4 -8 -10 -11 -5 -3 -10 -1 -10 4 0 6 5
11 10 11 6 0 10 -2 10 -4z m-5734 -51 c-6 -32 -9 -35 -23 -24 -10 9 -11 15 -4
17 6 2 11 12 11 21 0 19 10 34 18 26 2 -2 1 -20 -2 -40z m900 -12 c-10 -26
-18 -8 -9 23 5 21 8 24 11 11 2 -10 1 -25 -2 -34z m3509 -16 c-4 -14 -16 -35
-28 -48 l-21 -23 -7 25 -6 24 -11 -25 c-15 -38 -37 -54 -50 -37 -8 9 -5 21 10
45 20 33 56 49 83 38 11 -4 15 2 15 21 0 19 3 24 11 16 5 -5 7 -22 4 -36z
m-3295 -34 c-11 -17 -11 -17 -6 0 3 10 7 28 7 40 2 22 2 22 6 0 2 -12 -1 -30
-7 -40z m71 0 c-2 -44 -5 -53 -12 -37 -4 12 -12 25 -18 29 -6 3 -11 16 -11 28
0 16 3 18 9 9 6 -10 10 -9 14 7 11 42 22 20 18 -36z m4349 28 c0 -5 -9 -11
-20 -14 -13 -3 -20 0 -20 9 0 8 9 14 20 14 11 0 20 -4 20 -9z m-2376 -46 c-4
-8 -18 -15 -33 -15 l-26 1 30 14 c17 7 31 14 32 14 1 1 0 -6 -3 -14z m-2334
-20 c0 -8 -6 -15 -12 -16 -10 0 -10 -2 0 -6 6 -2 10 -9 7 -13 -11 -17 -14 -90
-4 -90 5 0 9 -6 7 -12 -1 -7 2 -23 6 -36 5 -14 3 -28 -4 -37 -10 -13 -8 -15
14 -15 14 0 26 5 26 11 0 5 5 7 10 4 14 -9 13 8 -2 23 -9 9 -9 12 0 12 18 0
31 -32 18 -45 -25 -25 -236 -40 -308 -22 -30 8 -70 45 -62 58 3 5 0 18 -6 29
-9 17 -8 20 9 20 11 0 22 -4 25 -9 3 -4 20 -11 38 -14 18 -3 42 -9 53 -13 19
-8 20 -7 2 19 l-17 27 32 1 33 2 -35 7 c-19 4 -27 8 -18 9 17 1 88 39 98 52 3
3 15 10 28 14 13 3 28 18 34 31 13 27 28 32 28 9z m1106 -52 c-10 -10 -34 11
-29 24 5 14 8 13 20 -2 7 -10 11 -20 9 -22z m1204 28 c0 -12 -20 -25 -27 -18
-7 7 6 27 18 27 5 0 9 -4 9 -9z m1870 -7 c0 -2 -18 -4 -41 -4 -22 0 -38 4 -35
8 5 8 76 4 76 -4z m-629 -4 c5 0 9 -5 9 -11 0 -7 -9 -9 -24 -5 -17 4 -26 0
-34 -17 -9 -18 -11 -19 -11 -4 -1 23 20 48 37 42 8 -3 18 -5 23 -5z m672 3
c-7 -2 -19 -2 -25 0 -7 3 -2 5 12 5 14 0 19 -2 13 -5z m1141 -15 c3 -13 6 -32
6 -42 0 -33 -24 0 -26 34 -2 35 11 40 20 8z m-3097 -3 c8 -9 13 -18 11 -21 -9
-9 -38 8 -38 22 0 18 8 18 27 -1z m-2140 -48 c-8 -62 -16 -75 -33 -52 -8 10
-17 16 -20 12 -4 -3 -20 3 -35 14 -21 15 -29 29 -29 50 l0 30 61 -3 61 -3 -5
-48z m900 -5 l22 -7 -24 -27 c-15 -18 -26 -24 -31 -17 -3 6 0 15 7 20 7 4 10
11 6 15 -4 4 -15 0 -24 -9 -14 -14 -14 -18 -3 -32 12 -15 12 -18 -2 -26 -9 -5
-26 -38 -38 -74 -12 -36 -24 -65 -27 -65 -3 0 -3 25 0 55 3 33 2 53 -4 50 -5
-4 -9 -26 -9 -51 0 -24 -4 -44 -9 -44 -27 0 33 184 64 196 8 4 12 10 9 15 -6
10 30 10 63 1z m3368 -22 c3 -5 1 -10 -4 -10 -6 0 -11 5 -11 10 0 6 2 10 4 10
3 0 8 -4 11 -10z m123 3 c-10 -2 -28 -2 -40 0 -13 2 -5 4 17 4 22 1 32 -1 23
-4z m-3611 -25 c-3 -8 -6 -5 -6 6 -1 11 2 17 5 13 3 -3 4 -12 1 -19z m3663
-35 c0 -7 -8 -13 -17 -13 -15 0 -16 -2 -3 -10 12 -8 10 -10 -9 -10 -17 0 -22
4 -17 16 3 9 6 22 6 30 0 9 5 12 10 9 6 -3 10 0 10 7 0 17 20 -12 20 -29z
m-2863 -65 c-3 -8 -6 -5 -6 6 -1 11 2 17 5 13 3 -3 4 -12 1 -19z m1933 -3 c-7
-8 -17 -15 -23 -15 -6 0 -2 7 9 15 25 19 30 19 14 0z m900 6 c0 -11 -99 -11
-106 1 -3 4 20 8 50 8 31 0 56 -4 56 -9z m29 -13 c12 -17 10 -18 -35 -16 -43
1 -44 2 -12 5 30 3 36 7 31 21 -7 18 -5 17 16 -10z m-799 -14 c0 -2 -16 -4
-36 -4 -19 0 -33 4 -30 8 5 8 66 4 66 -4z m-120 -9 c-7 -9 -15 -13 -19 -10 -3
3 1 10 9 15 21 14 24 12 10 -5z m897 -11 c-3 -3 -12 -4 -19 -1 -8 3 -5 6 6 6
11 1 17 -2 13 -5z m50 -10 c-3 -3 -12 -4 -19 -1 -8 3 -5 6 6 6 11 1 17 -2 13
-5z m-3573 -64 c14 -5 26 -14 26 -19 0 -6 -8 -7 -17 -4 -15 6 -16 5 -3 -9 8
-9 19 -13 24 -10 5 3 1 -9 -10 -26 l-18 -32 -23 28 c-12 15 -20 33 -18 40 3 8
5 20 5 28 0 17 1 17 34 4z m3566 -46 c0 4 7 1 15 -8 8 -8 15 -19 15 -24 0 -5
10 -16 23 -25 37 -25 11 -31 -30 -6 -44 27 -53 37 -53 63 0 15 3 16 15 6 8 -7
15 -9 15 -6z m-363 -30 c-3 -3 -12 -4 -19 -1 -8 3 -5 6 6 6 11 1 17 -2 13 -5z
m-3300 -60 c-3 -3 -12 -4 -19 -1 -8 3 -5 6 6 6 11 1 17 -2 13 -5z m56 -1 c-7
-2 -21 -2 -30 0 -10 3 -4 5 12 5 17 0 24 -2 18 -5z"/>
<path d="M2770 3279 c0 -5 5 -7 10 -4 6 3 10 8 10 11 0 2 -4 4 -10 4 -5 0 -10
-5 -10 -11z"/>
<path d="M3840 3133 c0 -6 14 -25 30 -43 26 -28 43 -24 22 5 -15 21 -52 48
-52 38z"/>
<path d="M3504 2849 c-16 -18 -16 -20 2 -40 10 -11 26 -18 35 -16 10 3 20 -1
23 -9 6 -16 36 -19 36 -4 0 6 -5 10 -12 10 -6 0 -9 3 -5 6 3 4 20 -6 38 -20
17 -15 34 -25 36 -22 5 5 -19 46 -27 46 -4 0 -15 7 -26 16 -18 14 -18 15 6 9
14 -4 35 -18 46 -32 13 -15 24 -21 28 -15 14 24 -86 90 -136 90 -15 0 -35 -9
-44 -19z"/>
<path d="M3300 2825 c0 -10 64 -34 74 -28 5 3 -6 12 -24 19 -34 15 -50 17 -50
9z"/>
<path d="M3531 2771 c-9 -6 -6 -10 10 -14 28 -8 34 -3 16 11 -7 6 -19 7 -26 3z"/>
<path d="M3521 2645 c0 -5 8 -26 19 -45 11 -19 19 -30 19 -25 0 6 -8 26 -19
45 -11 19 -19 31 -19 25z"/>
<path d="M4012 2321 c11 -29 122 -289 129 -303 5 -10 9 -24 9 -32 0 -8 5 -18
11 -22 25 -15 -13 90 -104 289 -20 42 -39 77 -42 77 -4 0 -5 -4 -3 -9z"/>
<path d="M3820 2271 c0 -6 4 -13 10 -16 6 -3 7 1 4 9 -7 18 -14 21 -14 7z"/>
<path d="M3785 2225 c4 -11 11 -35 17 -53 5 -18 27 -65 48 -105 21 -39 51
-106 66 -147 39 -105 134 -270 134 -232 0 6 -49 111 -108 234 -97 199 -107
224 -93 236 9 8 10 11 4 7 -7 -3 -13 -3 -13 2 0 4 -14 24 -31 43 -20 22 -28
28 -24 15z"/>
<path d="M3860 2209 c0 -5 18 -29 40 -52 25 -26 38 -34 34 -22 -6 16 -1 14 26
-10 25 -23 30 -25 22 -9 -14 27 -41 49 -49 40 -8 -8 -53 33 -53 48 0 6 11 -2
25 -19 13 -16 24 -25 25 -19 0 14 -37 47 -55 50 -8 1 -15 -2 -15 -7z"/>
<path d="M4010 2144 c0 -5 7 -19 15 -30 8 -10 15 -14 15 -8 0 5 -7 19 -15 30
-8 10 -15 14 -15 8z"/>
<path d="M3925 2100 c4 -8 16 -24 27 -36 10 -11 34 -61 54 -110 20 -49 45
-107 56 -129 11 -22 24 -46 27 -54 4 -8 13 -17 19 -19 13 -4 -1 34 -55 148
-20 41 -44 93 -53 115 -10 22 -32 54 -50 70 -18 17 -29 23 -25 15z"/>
<path d="M4045 2080 c3 -5 8 -10 11 -10 2 0 4 5 4 10 0 6 -5 10 -11 10 -5 0
-7 -4 -4 -10z"/>
<path d="M4065 1988 c40 -61 110 -265 120 -353 4 -33 12 -67 17 -75 7 -12 8
-10 4 5 -3 11 -10 94 -16 184 l-11 163 -64 64 c-35 35 -68 64 -74 64 -6 0 4
-24 24 -52z"/>
<path d="M3687 2003 c-4 -3 -7 -39 -7 -79 0 -62 3 -75 19 -84 25 -13 34 -13
25 1 -9 15 38 1 49 -15 6 -7 7 -4 3 7 -3 10 -6 22 -6 27 0 4 -9 6 -19 3 -21
-5 -61 28 -61 51 0 8 4 26 9 40 7 17 7 26 -2 30 -9 3 -8 7 3 15 8 6 10 11 4
11 -6 0 -14 -3 -17 -7z m28 -143 c3 -5 2 -10 -4 -10 -5 0 -13 5 -16 10 -3 6
-2 10 4 10 5 0 13 -4 16 -10z"/>
<path d="M4052 1965 c16 -50 75 -185 80 -185 11 0 -39 128 -63 165 -11 16 -19
25 -17 20z"/>
<path d="M3570 1935 c-8 -9 -8 -15 -2 -15 12 0 26 19 19 26 -2 2 -10 -2 -17
-11z"/>
<path d="M2830 1812 c0 -5 11 -19 25 -32 14 -13 25 -20 25 -15 0 5 6 0 14 -11
8 -10 18 -15 23 -11 4 5 -5 20 -22 33 -39 33 -65 47 -65 36z"/>
<path d="M3382 1723 c-33 -43 -74 -87 -91 -98 -17 -11 -31 -23 -31 -27 0 -8
35 9 65 32 26 20 129 159 122 166 -3 3 -32 -30 -65 -73z"/>
<path d="M4130 1760 c0 -5 5 -10 11 -10 5 0 7 5 4 10 -3 6 -8 10 -11 10 -2 0
-4 -4 -4 -10z"/>
<path d="M4112 1709 c6 -16 12 -28 15 -26 7 7 -8 57 -18 57 -4 0 -3 -14 3 -31z"/>
<path d="M3688 1639 c-4 -42 -10 -84 -14 -93 -5 -14 -2 -17 21 -14 26 3 28 -1
71 -116 25 -65 43 -120 42 -121 -47 -30 -79 -43 -83 -32 -3 6 -16 50 -30 95
-15 46 -29 81 -32 78 -8 -8 7 -96 17 -96 11 0 31 -60 24 -72 -3 -5 2 -16 12
-23 11 -9 14 -14 7 -15 -7 0 -13 -6 -13 -14 0 -8 -9 -18 -20 -21 -24 -8 -25
-26 -5 -65 14 -26 17 -28 38 -17 31 16 57 42 57 57 0 6 7 18 15 27 9 8 19 28
22 44 7 35 18 38 20 7 2 -40 -7 -67 -29 -88 -25 -23 -16 -40 13 -22 11 7 23
10 28 8 4 -3 9 23 10 59 1 35 -3 66 -9 70 -5 3 -10 11 -10 18 0 6 6 3 13 -6
11 -14 14 -14 31 -2 14 11 16 15 5 15 -12 0 -12 2 1 9 8 6 17 8 21 5 4 -2 6 6
3 19 -5 29 35 54 55 34 8 -8 11 -8 11 1 0 19 -23 24 -53 13 -19 -7 -27 -18
-27 -34 0 -18 -8 -25 -40 -34 l-41 -10 3 139 3 140 39 16 40 16 35 -44 c42
-51 99 -113 81 -87 -7 9 -9 17 -4 17 5 0 -2 7 -14 16 -23 16 -31 40 -9 28 10
-6 10 -4 0 7 -16 16 -17 33 -1 23 7 -5 8 -3 3 6 -6 10 -11 9 -22 -5 -12 -17
-18 -13 -14 8 1 5 -3 6 -9 2 -5 -3 -10 1 -10 9 0 8 -9 18 -20 21 -23 7 -110
-22 -110 -37 0 -5 -6 -6 -12 -2 -10 6 -10 4 0 -7 19 -20 15 -59 -5 -59 -10 0
-14 4 -8 8 16 11 14 42 -2 42 -8 0 -11 -4 -8 -10 3 -5 1 -10 -4 -10 -6 0 -11
7 -11 16 0 8 -4 12 -10 9 -5 -3 -10 -1 -10 4 0 6 -9 11 -20 11 -17 0 -19 8
-22 68 l-3 67 -7 -76z m119 -201 c-2 -13 -4 -3 -4 22 0 25 2 35 4 23 2 -13 2
-33 0 -45z m-29 17 c-3 -3 -9 2 -12 12 -6 14 -5 15 5 6 7 -7 10 -15 7 -18z"/>
<path d="M3931 1684 c0 -11 3 -14 6 -6 3 7 2 16 -1 19 -3 4 -6 -2 -5 -13z"/>
<path d="M4130 1663 c0 -4 5 -15 10 -23 8 -13 10 -13 10 2 0 9 -4 20 -10 23
-5 3 -10 3 -10 -2z"/>
<path d="M3550 1620 c-13 -8 -13 -10 2 -10 9 0 20 5 23 10 8 13 -5 13 -25 0z"/>
<path d="M4166 1592 c-3 -5 -1 -22 4 -38 8 -29 8 -29 9 9 1 36 -3 45 -13 29z"/>
<path d="M3305 1569 c-4 -12 -3 -25 2 -30 6 -6 10 2 10 21 0 35 -3 38 -12 9z"/>
<path d="M3220 1531 c0 -5 5 -13 10 -16 6 -3 10 -2 10 4 0 5 -4 13 -10 16 -5
3 -10 2 -10 -4z"/>
<path d="M3261 1504 c0 -11 3 -14 6 -6 3 7 2 16 -1 19 -3 4 -6 -2 -5 -13z"/>
<path d="M3437 1513 c-4 -3 -7 -11 -7 -17 0 -6 5 -5 12 2 6 6 9 14 7 17 -3 3
-9 2 -12 -2z"/>
<path d="M3688 1513 c-10 -3 -18 -9 -18 -14 0 -6 6 -6 18 0 15 8 21 1 41 -55
13 -36 25 -63 27 -61 5 5 -35 119 -45 128 -3 3 -14 4 -23 2z"/>
<path d="M3872 1500 c0 -14 2 -19 5 -12 2 6 2 18 0 25 -3 6 -5 1 -5 -13z"/>
<path d="M3892 1475 c2 -17 8 -25 20 -25 17 0 17 2 2 25 -9 14 -18 25 -20 25
-2 0 -3 -11 -2 -25z"/>
<path d="M3831 1424 c0 -11 3 -14 6 -6 3 7 2 16 -1 19 -3 4 -6 -2 -5 -13z"/>
<path d="M3878 1428 c5 -5 16 -8 23 -6 8 3 3 7 -10 11 -17 4 -21 3 -13 -5z"/>
<path d="M3696 1400 c4 -14 13 -36 21 -50 8 -14 11 -16 7 -5 -4 11 -8 30 -8
42 -1 11 -4 19 -8 17 -3 -2 -9 2 -12 8 -3 7 -3 2 0 -12z"/>
<path d="M3616 1341 c2 -24 4 -53 4 -64 0 -13 4 -17 9 -11 14 13 26 114 14
114 -6 0 -8 -12 -5 -27 5 -32 -13 -21 -21 12 -3 11 -3 0 -1 -24z"/>
<path d="M3830 1356 c0 -34 0 -35 30 -25 37 13 40 22 5 13 -23 -6 -25 -4 -21
20 3 14 0 26 -5 26 -5 0 -9 -16 -9 -34z"/>
<path d="M4025 1369 c-4 -6 -5 -12 -2 -15 2 -3 7 2 10 11 7 17 1 20 -8 4z"/>
<path d="M3761 1365 c0 -5 4 -19 8 -30 5 -11 4 -25 -2 -33 -7 -9 -6 -11 7 -6
12 4 15 13 10 28 -8 27 -24 54 -23 41z"/>
<path d="M3925 1351 c-7 -12 12 -24 25 -16 11 7 4 25 -10 25 -5 0 -11 -4 -15
-9z"/>
<path d="M3730 1308 c0 -9 5 -20 10 -23 13 -8 13 5 0 25 -8 13 -10 13 -10 -2z"/>
<path d="M3601 1264 c0 -11 3 -14 6 -6 3 7 2 16 -1 19 -3 4 -6 -2 -5 -13z"/>
<path d="M3595 1210 c-13 -6 -15 -9 -5 -9 8 0 22 4 30 9 18 12 2 12 -25 0z"/>
<path d="M3636 2273 c-6 -14 -5 -15 5 -6 7 7 10 15 7 18 -3 3 -9 -2 -12 -12z"/>
<path d="M4456 1842 c-3 -5 1 -9 9 -9 8 0 12 4 9 9 -3 4 -7 8 -9 8 -2 0 -6 -4
-9 -8z"/>
<path d="M5372 1130 c0 -14 2 -19 5 -12 2 6 2 18 0 25 -3 6 -5 1 -5 -13z"/>
<path d="M4895 1030 c4 -19 15 -43 24 -54 9 -10 16 -26 17 -35 0 -21 14 -111
21 -133 6 -22 21 -23 44 -2 10 9 30 17 44 17 15 0 24 4 22 11 -2 6 -21 11 -43
11 -37 0 -39 2 -38 30 0 17 2 37 3 45 2 8 3 36 2 62 -1 46 -2 47 -38 54 -21 4
-44 12 -52 18 -11 9 -12 5 -6 -24z"/>
<path d="M5044 1002 c2 -16 10 -28 20 -30 9 -2 14 -8 11 -13 -4 -5 -1 -9 5 -9
6 0 9 -4 5 -9 -8 -14 28 -31 62 -30 l28 1 -30 10 c-16 6 -33 16 -37 22 -12 18
0 19 18 2 15 -16 17 -16 29 1 12 16 14 16 20 2 9 -24 58 -13 50 12 -5 14 -2
17 9 13 26 -10 18 12 -11 31 -19 13 -52 19 -104 21 l-78 3 3 -27z m160 -11 c4
-5 -4 -7 -16 -4 -19 4 -21 3 -8 -7 13 -10 12 -11 -3 -6 -10 3 -26 6 -35 7 -10
1 -7 4 8 9 35 11 48 11 54 1z"/>
<path d="M4976 743 c-3 -3 -1 -14 5 -24 8 -15 21 -19 63 -19 35 0 58 -5 66
-15 17 -21 30 -19 30 6 0 11 -4 18 -9 15 -5 -3 -11 0 -14 8 -7 18 -127 42
-141 29z"/>
<path d="M5130 645 c0 -12 21 -25 41 -25 21 0 7 28 -16 32 -16 3 -25 1 -25 -7z"/>
<path d="M6815 1660 c3 -5 8 -10 11 -10 2 0 4 5 4 10 0 6 -5 10 -11 10 -5 0
-7 -4 -4 -10z"/>
<path d="M5920 1301 c0 -10 50 -25 57 -18 2 3 -10 9 -26 15 -17 6 -31 7 -31 3z"/>
<path d="M5845 1280 c-3 -5 -1 -10 4 -10 6 0 11 5 11 10 0 6 -2 10 -4 10 -3 0
-8 -4 -11 -10z"/>
<path d="M2743 1103 c9 -2 23 -2 30 0 6 3 -1 5 -18 5 -16 0 -22 -2 -12 -5z"/>
<path d="M1630 1215 c-11 -13 -10 -18 9 -31 21 -15 21 -17 4 -29 -15 -11 -15
-15 -4 -29 7 -9 20 -16 28 -16 8 0 12 -4 8 -9 -6 -11 33 -26 42 -17 4 3 1 6
-5 6 -20 0 -13 17 8 23 11 3 20 2 20 -3 0 -4 9 -10 20 -13 28 -7 25 8 -6 32
-35 27 -21 27 17 0 16 -11 29 -16 29 -11 0 16 -27 33 -72 47 -35 11 -38 14
-18 16 14 1 35 1 48 1 33 -2 27 7 -20 28 -52 24 -91 25 -108 5z"/>
<path d="M1738 1073 c7 -3 16 -2 19 1 4 3 -2 6 -13 5 -11 0 -14 -3 -6 -6z"/>
<path d="M1670 1046 c0 -2 11 -24 25 -47 14 -24 25 -56 25 -71 0 -16 4 -28 9
-28 14 0 -7 89 -30 121 -19 26 -29 35 -29 25z"/>
<path d="M1851 994 c0 -11 3 -14 6 -6 3 7 2 16 -1 19 -3 4 -6 -2 -5 -13z"/>
<path d="M1605 730 c3 -5 8 -10 11 -10 2 0 4 5 4 10 0 6 -5 10 -11 10 -5 0 -7
-4 -4 -10z"/>
<path d="M1911 1034 c0 -11 3 -14 6 -6 3 7 2 16 -1 19 -3 4 -6 -2 -5 -13z"/>
<path d="M5992 871 c-11 -6 -11 -17 -1 -55 13 -51 39 -77 79 -75 l25 1 -25 8
c-30 10 -20 12 43 10 51 -2 55 1 31 24 -18 18 -39 22 -28 5 5 -9 -1 -10 -21
-5 -35 9 -79 42 -66 50 13 9 52 9 79 1 38 -12 24 9 -18 28 -43 18 -77 21 -98
8z"/>
<path d="M5955 860 c3 -5 8 -10 11 -10 2 0 4 5 4 10 0 6 -5 10 -11 10 -5 0 -7
-4 -4 -10z"/>
<path d="M6160 831 c0 -5 5 -13 10 -16 6 -3 10 -2 10 4 0 5 -4 13 -10 16 -5 3
-10 2 -10 -4z"/>
<path d="M6305 720 c-3 -5 3 -10 14 -10 12 0 21 5 21 10 0 6 -6 10 -14 10 -8
0 -18 -4 -21 -10z"/>
<path d="M962 894 c10 -10 20 -15 24 -12 3 4 -5 12 -18 18 -22 12 -22 12 -6
-6z"/>
<path d="M950 861 c0 -25 11 -33 27 -20 18 16 16 26 -7 32 -14 4 -20 0 -20
-12z"/>
<path d="M2316 692 c-3 -5 1 -15 9 -22 16 -14 20 -3 6 19 -5 8 -11 9 -15 3z"/>
<path d="M2313 636 c-13 -6 -25 -17 -28 -24 -3 -8 0 -10 8 -5 15 10 48 5 66
-10 11 -10 13 -9 8 3 -4 8 -10 23 -13 33 -7 19 -10 19 -41 3z"/>
<path d="M2425 470 c3 -5 8 -10 11 -10 2 0 4 5 4 10 0 6 -5 10 -11 10 -5 0 -7
-4 -4 -10z"/>
<path d="M2450 450 c0 -5 7 -7 15 -4 8 4 15 8 15 10 0 2 -7 4 -15 4 -8 0 -15
-4 -15 -10z"/>
<path d="M2540 360 c0 -5 6 -10 14 -10 8 0 18 5 21 10 3 6 -3 10 -14 10 -12 0
-21 -4 -21 -10z"/>
<path d="M2618 358 c5 -5 16 -8 23 -6 8 3 3 7 -10 11 -17 4 -21 3 -13 -5z"/>
<path d="M6375 140 c3 -5 11 -10 16 -10 6 0 7 5 4 10 -3 6 -11 10 -16 10 -6 0
-7 -4 -4 -10z"/>
<path d="M4177 4495 c26 -31 59 -58 73 -62 14 -3 50 -18 80 -33 30 -15 96 -44
145 -63 50 -19 152 -65 228 -101 l138 -66 157 0 c219 0 792 -18 1002 -30 195
-12 309 -29 480 -70 63 -16 169 -38 234 -50 158 -29 379 -86 430 -112 23 -11
60 -34 83 -49 23 -16 44 -29 47 -29 3 0 6 162 6 360 l0 360 -1010 0 -1010 0 5
-42 c3 -24 8 -55 10 -71 3 -15 -1 -50 -7 -77 -10 -43 -15 -50 -35 -50 -14 0
-39 11 -56 24 -18 13 -41 26 -52 30 -27 8 -63 79 -70 139 l-6 47 -460 0 -460
0 48 -55z"/>
<path d="M4255 4310 c-8 -13 5 -13 25 0 13 8 13 10 -2 10 -9 0 -20 -4 -23 -10z"/>
<path d="M5115 3990 c-3 -5 0 -7 9 -4 8 3 27 -2 41 -12 15 -10 42 -17 60 -16
19 2 40 -4 48 -13 18 -17 137 -65 212 -84 28 -7 64 -19 80 -26 17 -7 85 -15
155 -17 69 -2 114 -1 100 3 -14 4 -49 7 -78 8 -33 1 -51 5 -47 11 3 6 -1 10
-10 10 -9 0 -13 -4 -10 -10 3 -5 -1 -10 -9 -10 -8 0 -18 5 -21 10 -3 6 0 10 7
10 9 0 9 3 -2 10 -20 13 -43 13 -35 0 3 -5 1 -10 -4 -10 -6 0 -11 5 -11 10 0
6 -9 10 -19 10 -11 0 -23 5 -26 10 -3 6 -22 10 -41 10 -19 0 -34 5 -34 10 0 6
-11 10 -24 10 -12 0 -54 12 -92 26 -38 14 -89 30 -114 34 -25 4 -58 12 -73 19
-35 14 -54 14 -62 1z"/>
<path d="M4164 3926 c11 -9 24 -16 30 -16 12 0 7 5 -24 19 -24 11 -24 11 -6
-3z"/>
<path d="M6680 3874 c-25 -14 -50 -30 -57 -36 -14 -11 -6 -41 9 -32 6 4 6 9
-2 14 -9 6 -6 11 10 20 17 9 29 9 52 -1 27 -11 29 -14 14 -25 -11 -8 -13 -14
-7 -19 16 -9 31 3 31 25 0 21 29 35 44 20 15 -15 46 -12 46 4 0 8 -6 17 -12
19 -9 4 -10 6 -1 6 25 2 41 -32 72 -146 17 -65 38 -131 46 -148 l13 -30 -5 40
c-4 22 -24 92 -45 155 -21 63 -38 118 -38 124 0 5 10 1 22 -10 22 -19 23 -19
8 1 -27 37 -45 44 -100 45 -41 0 -66 -7 -100 -26z m125 -32 c-3 -3 -11 0 -18
7 -9 10 -8 11 6 5 10 -3 15 -9 12 -12z"/>
<path d="M6920 3848 c0 -9 9 -26 20 -39 l21 -24 -17 35 c-21 43 -24 47 -24 28z"/>
<path d="M6767 3799 c11 -19 33 -56 49 -84 27 -48 54 -78 63 -69 3 2 -5 14
-16 27 -11 12 -37 50 -57 84 -20 35 -42 66 -48 70 -7 3 -3 -9 9 -28z"/>
<path d="M6579 3793 c-13 -16 -12 -17 4 -4 16 13 21 21 13 21 -2 0 -10 -8 -17
-17z"/>
<path d="M6637 3765 c6 -27 5 -29 -10 -17 -27 23 -77 21 -93 -3 -20 -30 -4
-80 24 -79 18 0 20 -2 9 -14 -10 -12 -9 -14 3 -10 18 6 20 44 3 41 -7 -2 -10
4 -6 13 3 8 8 14 12 12 31 -15 207 -124 209 -130 2 -4 7 -6 11 -3 4 2 23 -12
42 -31 l34 -35 -64 30 c-34 16 -70 27 -79 24 -11 -5 -13 -3 -7 7 5 9 4 11 -3
6 -18 -11 -15 -14 26 -35 l37 -20 -50 6 c-104 12 -180 30 -177 42 1 6 -10 11
-25 11 -38 0 -54 12 -43 30 6 8 10 10 10 4 0 -7 14 -14 30 -16 17 -3 30 -1 30
4 0 4 -7 8 -15 8 -9 0 -12 6 -8 16 5 13 2 15 -17 9 -15 -5 -25 -2 -31 6 -6 10
-9 7 -9 -11 -1 -32 -70 -113 -71 -84 0 10 -3 13 -6 7 -6 -17 -23 -16 -78 3
-26 8 -52 13 -58 11 -7 -2 22 -15 63 -27 41 -13 80 -28 86 -32 6 -5 14 -35 17
-68 4 -53 26 -98 40 -84 2 3 7 -7 11 -21 4 -14 14 -25 24 -26 10 0 12 -3 5 -6
-7 -2 -13 -9 -13 -15 0 -6 7 -8 15 -4 8 3 15 1 15 -5 0 -5 12 -3 28 4 15 8 74
32 132 52 58 21 122 49 144 63 52 32 70 16 32 -30 -44 -54 -142 -208 -133
-208 11 0 130 154 143 185 7 19 18 36 24 40 16 10 12 -7 -10 -42 -19 -32 -83
-263 -75 -271 2 -3 7 9 11 24 4 16 17 52 29 79 20 43 36 91 64 194 4 14 5 -56
3 -155 -2 -98 -6 -181 -9 -184 -2 -3 -13 6 -23 20 -16 21 -22 23 -38 13 -26
-16 -56 -7 -67 20 -8 17 -18 22 -43 21 -31 -2 -42 9 -22 21 6 3 10 12 10 18 0
7 -9 1 -20 -13 -11 -14 -20 -23 -21 -20 0 3 -2 16 -3 28 -3 28 -24 44 -48 36
-10 -3 -18 -1 -18 3 0 13 45 53 130 113 41 30 80 59 85 65 6 6 19 21 30 34
l20 24 -35 -18 c-38 -19 -67 -43 -174 -142 -37 -34 -72 -60 -78 -57 -5 4 -5
11 2 19 12 14 -11 45 -33 45 -7 0 -6 -4 3 -10 10 -7 11 -10 2 -10 -7 0 -15 6
-18 13 -7 18 -34 18 -34 0 0 -8 -5 -11 -12 -7 -20 12 32 -68 71 -110 47 -50
183 -135 231 -143 119 -21 161 -23 231 -9 87 19 112 36 51 36 -23 0 -41 3 -40
8 0 4 -2 14 -5 22 -3 8 -17 70 -31 136 -14 67 -32 137 -41 155 l-15 34 4 -55
c3 -30 20 -104 39 -165 33 -106 37 -146 12 -112 -16 22 -44 22 -61 0 -23 -33
-28 -3 -17 120 10 112 9 213 -1 277 -2 14 -5 35 -5 47 -1 14 -11 24 -29 31
-15 5 -41 23 -58 39 -16 16 -51 40 -79 55 -27 14 -75 42 -105 62 -30 20 -58
36 -62 36 -5 0 -8 5 -8 10 0 6 11 10 25 10 30 0 41 21 26 47 -9 15 -10 12 -4
-12z m-37 -19 c0 -2 -7 -7 -16 -10 -8 -3 -12 -2 -9 4 6 10 25 14 25 6z m137
-254 c-21 -4 -197 38 -197 47 0 4 48 -5 107 -19 58 -14 99 -26 90 -28z m-174
11 c-13 -2 -33 -2 -45 0 -13 2 -3 4 22 4 25 0 35 -2 23 -4z m297 -3 c8 -5 11
-10 5 -10 -5 0 -17 5 -25 10 -8 5 -10 10 -5 10 6 0 17 -5 25 -10z m-198 -30
c54 -6 121 -10 150 -11 63 -1 38 -17 -28 -18 -22 -1 -89 -10 -149 -21 -60 -11
-118 -20 -129 -20 -20 1 -20 2 -3 14 21 16 23 56 2 56 -8 0 -15 5 -15 10 0 6
15 8 38 5 20 -3 81 -10 134 -15z m193 10 c18 -8 18 -9 -5 -8 -14 0 -38 4 -55
8 l-30 8 35 0 c19 0 44 -3 55 -8z m10 -48 c-6 -5 -29 -14 -53 -21 -23 -6 -94
-37 -158 -67 -106 -51 -146 -62 -116 -32 19 19 14 38 -13 50 -14 6 -25 14 -25
18 0 4 56 12 124 19 69 7 146 19 173 26 58 16 81 18 68 7z m-298 -217 c4 -4 3
-5 -4 -2 -6 4 -13 2 -15 -5 -3 -8 -6 -6 -10 4 -7 17 15 19 29 3z m423 -218
c22 -4 21 -5 -4 -4 -17 1 -31 9 -33 17 -3 10 -2 11 4 4 4 -7 19 -14 33 -17z"/>
<path d="M110 3778 c0 -2 7 -24 15 -51 18 -59 50 -106 160 -232 86 -98 122
-131 92 -84 -9 13 -19 41 -22 61 -4 23 -11 35 -18 31 -6 -4 -7 -1 -2 6 11 19
-70 173 -106 200 -19 14 -28 28 -25 37 3 9 1 12 -4 9 -6 -3 -10 -1 -10 4 0 6
-4 11 -9 11 -5 0 -7 -9 -4 -20 3 -11 10 -20 15 -20 5 0 6 -4 3 -10 -10 -17
-19 -12 -44 25 -13 19 -27 35 -32 35 -5 0 -9 -1 -9 -2z"/>
<path d="M6706 3740 c22 -25 52 -59 66 -77 16 -19 28 -27 30 -20 3 7 -27 41
-66 77 -50 45 -59 51 -30 20z"/>
<path d="M6945 3710 c4 -36 7 -90 7 -120 l0 -55 8 50 c7 46 -5 173 -17 185 -3
3 -2 -24 2 -60z"/>
<path d="M6500 3690 c0 -5 5 -10 10 -10 6 0 10 5 10 10 0 6 -4 10 -10 10 -5 0
-10 -4 -10 -10z"/>
<path d="M6996 3652 c-12 -20 -25 -115 -13 -103 5 5 9 22 9 38 0 15 5 33 10
40 5 7 8 18 6 25 -3 9 -6 9 -12 0z"/>
<path d="M6640 3595 c19 -7 42 -13 50 -13 8 0 -1 6 -20 13 -19 7 -42 13 -50
13 -8 0 1 -6 20 -13z"/>
<path d="M6837 3603 c-2 -5 12 -21 32 -38 l35 -30 -22 32 c-26 37 -39 47 -45
36z"/>
<path d="M5 3589 c-5 -7 -2 -17 7 -23 8 -6 20 -20 26 -31 6 -11 12 -14 12 -8
0 7 -9 26 -19 44 -13 21 -21 27 -26 18z"/>
<path d="M6190 3596 c0 -2 7 -7 16 -10 8 -3 12 -2 9 4 -6 10 -25 14 -25 6z"/>
<path d="M6896 3570 c10 -16 19 -28 21 -26 6 6 -20 56 -29 56 -5 0 -1 -13 8
-30z"/>
<path d="M6998 3542 l-17 -34 30 28 c16 15 29 33 29 38 0 6 -4 5 -9 -3 -5 -7
-10 -9 -12 -3 -2 5 -12 -6 -21 -26z"/>
<path d="M1 3508 c-1 -27 8 -66 20 -95 12 -26 30 -74 40 -107 10 -32 28 -73
39 -90 20 -34 87 -98 130 -124 14 -9 2 5 -27 32 -39 35 -54 56 -58 84 -4 20
-29 81 -56 135 -27 54 -49 106 -49 117 0 10 -4 22 -10 25 -5 3 -14 20 -19 38
-9 31 -9 31 -10 -15z"/>
<path d="M7012 3519 c-39 -35 -36 -36 18 -5 26 14 36 25 28 29 -8 2 -28 -8
-46 -24z"/>
<path d="M6946 3508 c10 -13 19 -24 20 -26 1 -2 2 9 2 24 0 18 -3 22 -9 13 -6
-10 -9 -11 -9 -1 0 6 -5 12 -12 12 -6 0 -3 -10 8 -22z"/>
<path d="M7035 3495 c-30 -13 -30 -13 10 -8 46 7 51 9 33 16 -8 2 -27 -1 -43
-8z"/>
<path d="M6987 3473 c7 -3 9 -11 6 -19 -3 -8 0 -14 7 -14 6 0 8 5 5 10 -7 11
57 8 115 -5 14 -3 18 -2 10 1 -8 4 -17 10 -20 14 -3 4 -34 9 -70 12 -36 3 -60
3 -53 1z"/>
<path d="M50 3445 c0 -8 4 -15 9 -15 5 0 16 -15 25 -32 8 -18 16 -28 16 -21 0
12 -39 83 -46 83 -2 0 -4 -7 -4 -15z"/>
<path d="M7059 3421 c23 -12 47 -18 52 -15 5 3 9 2 9 -3 0 -8 72 -34 77 -29 8
8 -100 56 -138 61 l-44 6 44 -20z"/>
<path d="M7030 3400 c27 -21 40 -25 40 -12 0 9 -44 32 -58 32 -4 0 4 -9 18
-20z"/>
<path d="M7019 3370 c27 -40 91 -99 106 -99 6 0 3 5 -5 12 -8 7 -23 24 -33 39
-9 16 -23 27 -30 25 -6 -1 -11 3 -10 8 0 6 -11 19 -25 30 l-26 19 23 -34z"/>
<path d="M7087 3378 c7 -8 9 -19 5 -23 -4 -5 -2 -5 5 -2 6 4 13 4 15 -1 1 -4
30 -26 63 -48 112 -76 112 -70 0 18 -83 64 -106 79 -88 56z"/>
<path d="M6994 3345 c7 -22 39 -78 70 -125 31 -46 56 -89 56 -95 1 -14 36 -55
49 -55 5 0 13 -5 17 -12 5 -8 2 -9 -9 -5 -9 3 -16 3 -16 -1 3 -19 -2 -25 -11
-12 -8 13 -10 12 -10 -2 0 -10 3 -18 6 -18 9 0 74 41 74 46 0 3 -4 3 -8 0 -5
-3 -23 5 -40 17 -29 20 -53 57 -104 160 -10 20 -22 37 -27 37 -5 0 -7 8 -5 18
3 10 -8 32 -25 52 l-31 35 14 -40z"/>
<path d="M6460 3336 c0 -12 29 -76 34 -76 3 0 -2 17 -11 38 -16 38 -23 50 -23
38z"/>
<path d="M410 3325 c0 -5 5 -17 10 -25 5 -8 10 -10 10 -5 0 6 -5 17 -10 25 -5
8 -10 11 -10 5z"/>
<path d="M4391 3314 c0 -11 3 -14 6 -6 3 7 2 16 -1 19 -3 4 -6 -2 -5 -13z"/>
<path d="M7170 3213 c25 -26 49 -51 54 -54 6 -5 4 -15 -5 -25 -9 -11 -9 -15
-1 -10 7 4 12 2 12 -4 0 -6 5 -8 12 -4 8 5 9 0 5 -16 -6 -22 -5 -22 11 -6 16
16 27 90 12 81 -4 -3 -10 5 -13 16 -4 16 -2 19 11 14 13 -5 14 -3 5 6 -17 17
-36 0 -29 -27 9 -36 -6 -29 -56 26 -25 28 -49 50 -54 50 -4 0 12 -21 36 -47z
m90 -67 c0 -3 -4 -8 -10 -11 -5 -3 -10 -1 -10 4 0 6 5 11 10 11 6 0 10 -2 10
-4z"/>
<path d="M270 3171 c0 -6 4 -13 10 -16 6 -3 7 1 4 9 -7 18 -14 21 -14 7z"/>
<path d="M7171 3114 c0 -11 3 -14 6 -6 3 7 2 16 -1 19 -3 4 -6 -2 -5 -13z"/>
<path d="M7077 3083 c-11 -11 -8 -43 4 -43 6 0 9 7 5 15 -3 8 2 19 12 24 15 9
15 10 1 11 -9 0 -19 -3 -22 -7z"/>
<path d="M442 2889 c14 -19 34 -52 43 -74 10 -22 19 -35 22 -28 5 13 -58 116
-78 129 -7 4 -1 -8 13 -27z"/>
<path d="M889 2890 c13 -11 30 -20 39 -20 19 0 16 3 -28 23 l-35 17 24 -20z"/>
<path d="M820 2869 c0 -5 5 -7 10 -4 6 3 10 8 10 11 0 2 -4 4 -10 4 -5 0 -10
-5 -10 -11z"/>
<path d="M6588 2833 c6 -2 18 -2 25 0 6 3 1 5 -13 5 -14 0 -19 -2 -12 -5z"/>
<path d="M272 2817 c-81 -30 -146 -115 -140 -185 4 -48 34 -53 32 -5 -1 24 3
33 18 37 17 4 20 10 15 34 -5 27 -4 29 19 24 21 -4 24 -1 24 28 0 31 1 32 18
17 20 -18 52 -6 52 21 1 16 2 16 14 0 16 -22 46 -24 46 -3 0 8 5 15 10 15 6 0
10 -9 10 -19 0 -23 22 -40 28 -23 2 7 8 12 13 12 6 0 7 -5 4 -10 -9 -15 4 -50
20 -50 7 0 16 -16 19 -35 4 -19 11 -35 16 -35 6 0 10 -18 10 -39 0 -22 4 -42
8 -45 5 -3 7 -40 4 -83 -2 -43 -4 -91 -3 -106 0 -15 -9 -37 -20 -48 -15 -15
-20 -29 -15 -50 4 -21 2 -27 -8 -23 -16 6 -46 -32 -46 -59 0 -10 -5 -15 -10
-12 -17 10 -40 -15 -40 -42 0 -21 -2 -23 -15 -13 -18 15 -45 6 -45 -16 0 -14
-2 -14 -16 -3 -14 11 -18 10 -30 -6 -12 -17 -14 -17 -14 -2 0 20 -16 23 -23 5
-3 -7 -6 -3 -6 9 -1 12 -5 25 -11 28 -5 3 -10 15 -10 26 0 10 -5 19 -10 19 -6
0 -10 12 -10 28 0 92 4 134 13 149 8 12 -1 43 -13 43 -8 0 -20 -84 -20 -147 0
-23 14 -78 31 -122 l31 -81 37 0 c76 0 201 108 242 210 27 67 37 235 20 337
-17 101 -63 188 -111 213 -44 22 -89 24 -138 7z"/>
<path d="M945 2770 c-8 -13 3 -30 21 -30 18 0 18 14 0 29 -10 8 -16 9 -21 1z"/>
<path d="M865 2710 c3 -5 8 -10 11 -10 2 0 4 5 4 10 0 6 -5 10 -11 10 -5 0 -7
-4 -4 -10z"/>
<path d="M333 2640 c0 -41 2 -58 4 -37 2 20 2 54 0 75 -2 20 -4 3 -4 -38z"/>
<path d="M910 2685 c0 -9 7 -18 15 -21 12 -5 13 -10 4 -20 -9 -11 -6 -14 14
-14 19 0 25 -4 21 -15 -9 -22 23 -30 41 -11 15 14 15 18 1 31 -8 8 -19 15 -24
15 -5 0 -15 7 -22 16 -8 8 -22 20 -32 25 -14 7 -18 6 -18 -6z"/>
<path d="M7170 2686 c0 -9 5 -16 10 -16 6 0 10 4 10 9 0 6 -4 13 -10 16 -5 3
-10 -1 -10 -9z"/>
<path d="M286 2675 c3 -11 10 -47 14 -80 l7 -60 1 55 c1 34 -5 65 -14 80 -10
17 -13 18 -8 5z"/>
<path d="M365 2648 c-3 -24 -9 -52 -11 -63 -4 -16 -3 -17 4 -5 11 17 26 110
18 110 -2 0 -7 -19 -11 -42z"/>
<path d="M7200 2681 c0 -6 4 -13 10 -16 6 -3 7 1 4 9 -7 18 -14 21 -14 7z"/>
<path d="M877 2659 c7 -7 15 -10 18 -7 3 3 -2 9 -12 12 -14 6 -15 5 -6 -5z"/>
<path d="M251 2639 c7 -13 18 -46 25 -74 11 -44 12 -46 13 -17 1 36 -21 96
-39 107 -9 5 -9 1 1 -16z"/>
<path d="M1141 2644 c0 -11 3 -14 6 -6 3 7 2 16 -1 19 -3 4 -6 -2 -5 -13z"/>
<path d="M380 2599 c-8 -24 -14 -54 -15 -67 l-1 -23 18 23 c24 32 60 98 54 98
-3 0 -17 -20 -32 -45 -31 -54 -41 -54 -19 -1 9 21 14 43 13 48 -2 6 -10 -9
-18 -33z"/>
<path d="M1048 2623 c6 -2 18 -2 25 0 6 3 1 5 -13 5 -14 0 -19 -2 -12 -5z"/>
<path d="M222 2593 c14 -18 29 -46 33 -63 4 -16 11 -30 16 -30 17 0 -26 93
-51 109 l-25 16 27 -32z"/>
<path d="M440 2566 c-19 -18 -46 -46 -60 -62 -13 -16 3 -2 38 31 56 54 67 66
60 65 -2 0 -19 -15 -38 -34z"/>
<path d="M1271 2584 c0 -11 3 -14 6 -6 3 7 2 16 -1 19 -3 4 -6 -2 -5 -13z"/>
<path d="M218 2520 c29 -42 50 -54 31 -17 -15 29 -40 57 -50 57 -5 0 4 -18 19
-40z"/>
<path d="M152 2538 c-15 -15 -15 -37 1 -66 12 -21 13 -19 13 28 0 27 0 50 -1
50 -1 0 -6 -5 -13 -12z"/>
<path d="M422 2498 c-70 -33 -79 -51 -10 -20 39 18 91 52 78 51 -3 0 -33 -14
-68 -31z"/>
<path d="M1011 2504 c13 -16 29 -19 29 -5 0 5 -9 11 -21 14 -16 4 -18 3 -8 -9z"/>
<path d="M193 2482 c10 -11 27 -22 38 -25 32 -9 21 8 -18 27 -38 18 -38 18
-20 -2z"/>
<path d="M308 2483 c7 -3 16 -2 19 1 4 3 -2 6 -13 5 -11 0 -14 -3 -6 -6z"/>
<path d="M0 2389 c0 -86 2 -93 27 -119 16 -15 35 -36 43 -47 8 -10 11 -13 6
-6 -10 16 0 46 14 38 14 -9 13 4 -11 76 -19 59 -64 149 -74 149 -3 0 -5 -41
-5 -91z"/>
<path d="M285 2440 c-10 -30 5 -47 22 -25 7 11 13 25 13 32 0 21 -28 15 -35
-7z"/>
<path d="M262 2425 c0 -16 2 -22 5 -12 2 9 2 23 0 30 -3 6 -5 -1 -5 -18z"/>
<path d="M365 2440 c-14 -6 -5 -9 35 -9 30 0 64 4 75 9 14 6 5 9 -35 9 -30 0
-64 -4 -75 -9z"/>
<path d="M205 2430 c-3 -5 3 -10 14 -10 11 0 23 5 26 10 3 6 -3 10 -14 10 -11
0 -23 -4 -26 -10z"/>
<path d="M344 2411 c7 -11 110 -51 129 -51 17 1 -72 46 -106 54 -18 4 -26 3
-23 -3z"/>
<path d="M310 2395 c-7 -9 -20 -13 -29 -10 -13 5 -14 4 -3 -7 10 -10 16 -8 34
10 12 12 20 22 16 22 -3 0 -11 -7 -18 -15z"/>
<path d="M225 2389 c-4 -6 -5 -12 -2 -15 2 -3 7 2 10 11 7 17 1 20 -8 4z"/>
<path d="M351 2370 c8 -13 35 -40 60 -59 l44 -36 -39 45 c-22 25 -49 52 -60
60 -20 14 -21 14 -5 -10z"/>
<path d="M230 2339 c-7 -11 -10 -23 -7 -25 2 -2 9 7 15 21 14 30 7 33 -8 4z"/>
<path d="M336 2340 c7 -28 64 -131 63 -115 0 6 -16 39 -35 75 -19 36 -32 54
-28 40z"/>
<path d="M316 2307 c5 -48 32 -136 33 -107 0 8 -9 47 -19 85 -18 62 -19 65
-14 22z"/>
<path d="M293 2260 c0 -41 2 -58 4 -37 2 20 2 54 0 75 -2 20 -4 3 -4 -38z"/>
<path d="M246 2299 c5 -20 4 -21 -6 -9 -10 13 -11 12 -6 -3 3 -10 6 -28 7 -40
1 -12 5 -5 10 17 6 25 6 43 0 49 -6 6 -8 1 -5 -14z"/>
<path d="M267 2281 c-4 -18 -6 -54 -6 -80 l1 -46 9 60 c11 70 8 119 -4 66z"/>
<path d="M231 2204 c0 -11 3 -14 6 -6 3 7 2 16 -1 19 -3 4 -6 -2 -5 -13z"/>
<path d="M13 2168 c-6 -7 -11 -47 -12 -88 l-1 -75 83 -53 c45 -29 93 -60 106
-70 24 -16 24 -16 12 6 -7 13 -16 62 -21 108 -11 102 -26 155 -44 148 -7 -3
-18 5 -24 18 -12 23 -12 23 -6 -2 6 -21 5 -23 -8 -12 -9 7 -31 10 -54 7 -26
-3 -34 -1 -24 5 8 5 12 12 9 15 -4 3 -11 0 -16 -7z"/>
<path d="M301 2164 c0 -11 3 -14 6 -6 3 7 2 16 -1 19 -3 4 -6 -2 -5 -13z"/>
<path d="M1137 1779 c7 -7 15 -10 18 -7 3 3 -2 9 -12 12 -14 6 -15 5 -6 -5z"/>
<path d="M1235 1740 c3 -5 8 -10 11 -10 2 0 4 5 4 10 0 6 -5 10 -11 10 -5 0
-7 -4 -4 -10z"/>
<path d="M1343 1634 c14 -14 35 -45 46 -69 18 -37 41 -67 41 -51 0 8 -42 78
-62 105 -10 13 -16 26 -14 30 3 4 -4 8 -15 8 -19 2 -19 0 4 -23z"/>
<path d="M70 1536 c0 -2 8 -10 18 -17 15 -13 16 -12 3 4 -13 16 -21 21 -21 13z"/>
<path d="M0 1281 c0 -16 7 -34 15 -41 8 -7 15 -20 14 -29 0 -11 -3 -9 -9 7 -5
12 -12 22 -15 22 -3 0 -5 -279 -5 -620 l0 -620 248 2 c228 3 247 4 246 21 -2
23 9 22 31 -3 24 -26 55 -26 55 -1 0 23 22 40 28 23 2 -7 10 -12 17 -12 7 0
15 -7 19 -15 6 -18 132 -22 138 -4 2 7 12 7 31 0 42 -16 178 -14 171 2 -2 7 2
21 10 32 13 18 14 17 21 -13 8 -39 27 -43 23 -4 -3 26 -1 27 47 30 27 2 53 8
56 14 4 6 10 -8 14 -31 6 -34 11 -41 30 -41 21 0 23 3 21 68 -1 52 3 72 16 85
9 9 22 30 29 46 15 35 40 51 66 45 18 -5 32 -29 103 -176 22 -47 38 -68 50
-68 17 0 18 2 2 43 -9 23 -20 43 -24 45 -5 2 -8 8 -8 14 0 6 -20 44 -45 84
-24 41 -42 74 -39 74 2 0 22 -18 43 -40 21 -22 47 -40 59 -40 11 0 33 -6 49
-14 15 -8 41 -20 56 -27 16 -7 38 -26 49 -42 17 -24 18 -31 7 -39 -12 -8 -11
-9 1 -5 8 2 16 11 18 19 6 29 -38 103 -75 128 -70 48 -88 60 -110 71 -13 7
-23 19 -23 26 0 10 -6 12 -22 7 -77 -24 -195 12 -225 70 -9 18 -18 26 -21 18
-2 -7 7 -27 20 -45 42 -56 43 -59 11 -51 -40 10 -44 13 -35 31 17 30 -43 168
-103 237 -29 34 -33 27 -6 -12 19 -26 49 -114 68 -199 8 -34 7 -43 -3 -43 -7
0 -16 5 -19 10 -3 6 -19 10 -36 10 -42 0 -69 31 -70 83 l-2 42 -6 -35 c-7 -34
-7 -33 -14 21 -5 31 -6 69 -2 85 4 24 4 26 -5 9 -9 -17 -10 -15 -7 12 2 18 0
30 -5 27 -4 -3 -8 2 -8 11 0 18 -39 79 -46 72 -3 -3 4 -20 16 -39 19 -33 48
-193 37 -204 -13 -13 -47 20 -57 55 -12 44 -47 94 -61 86 -5 -4 -9 0 -9 8 0
10 -7 13 -20 10 -14 -4 -20 0 -20 11 0 9 -4 16 -10 16 -5 0 -10 -6 -10 -12 0
-7 -10 -1 -23 13 -23 27 -50 40 -124 59 -40 10 -42 12 -49 58 -8 52 -30 112
-42 112 -26 -1 -78 -27 -74 -38 3 -10 -3 -10 -27 2 -36 19 -40 26 -9 18 13 -3
19 -1 15 5 -4 6 2 13 13 16 24 6 27 37 4 37 -9 0 -12 -5 -8 -12 4 -6 3 -8 -4
-5 -13 9 -4 47 12 47 17 1 62 38 54 45 -4 4 -29 3 -55 -2 l-48 -9 -38 48 c-21
26 -44 45 -51 42 -10 -4 -86 93 -86 110 0 11 -49 77 -57 77 -4 -1 -8 6 -8 15
0 9 -8 21 -18 28 -9 7 -17 18 -17 25 0 6 -8 12 -17 12 -38 3 -77 8 -90 13 -9
4 -13 -3 -13 -23z m480 -521 c0 -5 -2 -10 -4 -10 -3 0 -8 5 -11 10 -3 6 -1 10
4 10 6 0 11 -4 11 -10z m326 -641 c84 -15 94 -18 94 -36 0 -13 -10 -15 -65 -9
-80 8 -115 21 -115 41 0 18 8 18 86 4z m-596 -35 c0 -8 -4 -12 -10 -9 -5 3
-10 13 -10 21 0 8 5 12 10 9 6 -3 10 -13 10 -21z m530 -34 c0 -5 -4 -10 -10
-10 -5 0 -10 5 -10 10 0 6 5 10 10 10 6 0 10 -4 10 -10z"/>
<path d="M1965 950 c3 -5 8 -10 11 -10 2 0 4 5 4 10 0 6 -5 10 -11 10 -5 0 -7
-4 -4 -10z"/>
<path d="M1900 942 c0 -5 7 -13 16 -16 10 -4 14 -1 12 6 -5 15 -28 23 -28 10z"/>
<path d="M1995 931 c-3 -5 -2 -12 3 -15 5 -3 9 1 9 9 0 17 -3 19 -12 6z"/>
<path d="M821 650 c20 -38 39 -60 39 -44 0 9 -51 84 -56 84 -2 0 6 -18 17 -40z"/>
<path d="M801 624 c0 -11 3 -14 6 -6 3 7 2 16 -1 19 -3 4 -6 -2 -5 -13z"/>
<path d="M1098 572 c24 -29 48 -54 53 -58 15 -9 10 8 -8 28 -9 11 -11 18 -5
18 7 0 12 5 12 10 0 6 -7 10 -16 8 -10 -2 -19 3 -22 11 -3 9 0 11 9 6 8 -5 10
-4 6 0 -4 5 -13 10 -20 11 -7 1 -21 6 -32 10 -14 5 -6 -8 23 -44z"/>
<path d="M1008 603 c7 -3 16 -2 19 1 4 3 -2 6 -13 5 -11 0 -14 -3 -6 -6z"/>
<path d="M883 590 c3 -8 7 -25 11 -37 5 -14 3 -23 -3 -23 -6 0 -11 -4 -11 -10
0 -5 7 -10 15 -10 19 0 19 26 -1 65 -8 17 -13 23 -11 15z"/>
<path d="M1040 535 c0 -5 5 -17 10 -25 5 -8 10 -10 10 -5 0 6 -5 17 -10 25 -5
8 -10 11 -10 5z"/>
<path d="M3245 530 c3 -5 8 -10 11 -10 2 0 4 5 4 10 0 6 -5 10 -11 10 -5 0 -7
-4 -4 -10z"/>
<path d="M3098 513 c7 -3 16 -2 19 1 4 3 -2 6 -13 5 -11 0 -14 -3 -6 -6z"/>
<path d="M972 480 c0 -14 2 -19 5 -12 2 6 2 18 0 25 -3 6 -5 1 -5 -13z"/>
<path d="M1062 460 c0 -19 2 -27 5 -17 2 9 2 25 0 35 -3 9 -5 1 -5 -18z"/>
<path d="M2052 410 c0 -14 2 -19 5 -12 2 6 2 18 0 25 -3 6 -5 1 -5 -13z"/>
<path d="M2870 411 c0 -6 4 -13 10 -16 6 -3 7 1 4 9 -7 18 -14 21 -14 7z"/>
<path d="M3330 412 c0 -6 5 -14 11 -18 6 -3 8 -17 5 -30 -4 -14 -2 -24 4 -24
16 0 12 56 -5 70 -9 8 -15 9 -15 2z"/>
<path d="M3440 409 c0 -4 7 -22 15 -40 8 -19 14 -27 14 -19 0 14 -28 72 -29
59z"/>
<path d="M2947 373 c-4 -3 -7 -11 -7 -17 0 -6 5 -5 12 2 6 6 9 14 7 17 -3 3
-9 2 -12 -2z"/>
<path d="M3190 366 c0 -4 21 -36 46 -70 57 -75 79 -119 71 -141 -5 -13 -11
-14 -27 -5 -11 6 -20 16 -20 21 0 6 -11 20 -25 31 -14 11 -23 23 -20 27 2 5
-4 16 -15 26 -11 10 -20 14 -20 10 0 -5 -6 0 -14 10 -8 11 -12 24 -9 30 4 5 3
7 -2 3 -4 -4 -14 -3 -22 3 -7 6 -13 7 -13 2 0 -12 26 -48 87 -121 29 -34 53
-68 53 -75 0 -6 4 -18 9 -26 8 -12 12 -12 25 -2 8 7 13 18 10 26 -3 7 -1 16 4
19 12 7 24 -22 16 -37 -4 -7 1 -4 11 5 15 14 16 20 6 32 -11 13 -10 18 3 31
20 20 21 29 2 22 -14 -6 -56 47 -56 70 0 5 -22 34 -50 64 -27 30 -50 50 -50
45z"/>
<path d="M3353 275 c0 -27 2 -38 4 -22 2 15 2 37 0 50 -2 12 -4 0 -4 -28z"/>
<path d="M6205 258 c-4 -18 -9 -27 -12 -20 -2 6 -9 12 -14 12 -4 0 -6 -7 -3
-15 3 -8 -1 -24 -10 -37 -9 -12 -16 -27 -16 -33 0 -5 5 -3 10 5 7 11 10 11 10
2 0 -19 -42 -72 -56 -72 -7 0 -17 -6 -21 -13 -4 -7 -19 -21 -33 -30 -13 -9
-18 -17 -11 -17 8 0 11 -7 8 -20 -5 -20 12 -28 27 -13 4 5 12 9 17 9 5 1 13 2
19 3 5 0 16 13 25 29 l15 27 -6 -38 c-5 -30 -3 -37 10 -37 16 0 44 54 38 74
-2 4 2 22 7 40 12 35 19 162 9 171 -3 3 -9 -9 -13 -27z"/>
<path d="M2101 230 c-1 -32 -5 -38 -38 -50 -24 -8 -32 -15 -23 -18 8 -3 18
-10 23 -16 5 -7 15 -3 29 14 18 22 20 22 16 5 -4 -16 0 -20 22 -21 22 -1 26 3
23 17 -3 11 -10 16 -16 12 -6 -4 -8 0 -4 10 4 10 2 16 -6 14 -6 -1 -14 14 -18
33 l-6 35 -2 -35z"/>
<path d="M1870 235 c0 -8 4 -15 10 -15 5 0 7 7 4 15 -4 8 -8 15 -10 15 -2 0
-4 -7 -4 -15z"/>
<path d="M2247 183 c-6 -10 0 -101 8 -120 2 -8 0 -23 -5 -34 -9 -15 -7 -21 6
-26 9 -3 19 -1 23 6 8 12 4 144 -4 169 -5 13 -21 16 -28 5z"/>
<path d="M1949 161 c6 -10 22 -22 37 -25 39 -10 42 1 3 13 -19 5 -28 10 -21
10 21 2 13 21 -8 21 -17 0 -19 -3 -11 -19z"/>
<path d="M1850 139 c-100 -27 -172 -51 -167 -55 2 -3 24 2 48 10 24 9 55 16
69 16 14 0 45 7 69 16 48 16 71 11 25 -7 -16 -6 -77 -23 -136 -39 -58 -15
-114 -33 -125 -38 -28 -17 74 -13 112 3 17 7 50 16 75 19 57 7 98 26 106 48
12 37 -10 45 -76 27z"/>
<path d="M1470 124 c0 -5 11 -21 24 -37 20 -23 25 -25 35 -13 8 10 9 16 1 21
-5 3 -10 3 -10 -1 0 -4 -11 3 -25 16 -14 13 -25 19 -25 14z"/>
<path d="M2115 100 c17 -11 35 -20 40 -20 17 1 -36 40 -54 40 -10 0 -6 -7 14
-20z"/>
<path d="M2955 104 c28 -8 80 -23 116 -34 36 -11 81 -20 100 -19 29 1 27 3
-21 14 -30 7 -90 22 -132 34 -43 11 -86 21 -95 20 -10 -1 5 -7 32 -15z"/>
<path d="M1545 100 c3 -5 8 -10 11 -10 2 0 4 5 4 10 0 6 -5 10 -11 10 -5 0 -7
-4 -4 -10z"/>
<path d="M1570 106 c0 -2 7 -7 16 -10 8 -3 12 -2 9 4 -6 10 -25 14 -25 6z"/>
<path d="M4524 86 c-32 -14 -64 -51 -64 -73 0 -10 26 -13 100 -13 l100 0 0 33
c0 61 -62 85 -136 53z"/>
<path d="M1223 76 c3 -17 34 -26 59 -17 19 7 16 9 -20 18 -30 8 -41 8 -39 -1z"/>
<path d="M2100 65 c46 -25 70 -31 70 -17 0 7 -89 42 -106 42 -5 -1 11 -12 36
-25z"/>
<path d="M2938 78 c6 -6 18 -8 28 -6 14 3 12 5 -9 10 -19 3 -25 2 -19 -4z"/>
<path d="M3330 75 c-7 -9 -19 -14 -26 -11 -8 3 -13 0 -11 -6 1 -6 -16 -22 -38
-34 -29 -17 -34 -24 -20 -24 25 0 91 44 105 70 13 24 7 26 -10 5z"/>
<path d="M6325 61 c3 -18 5 -40 5 -47 0 -8 5 -14 10 -14 14 0 12 30 -6 65
l-14 30 5 -34z"/>
<path d="M1550 65 c0 -18 11 -24 32 -16 15 5 13 8 -7 18 -20 9 -25 8 -25 -2z"/>
<path d="M2386 64 c-7 -19 3 -64 15 -64 12 0 11 27 -1 35 -6 4 -8 15 -5 26 8
23 0 26 -9 3z"/>
<path d="M6620 40 c-11 -22 -16 -40 -10 -40 5 0 10 2 10 4 0 2 7 20 15 40 20
48 10 46 -15 -4z"/>
<path d="M1860 50 c0 -5 5 -10 10 -10 6 0 10 5 10 10 0 6 -4 10 -10 10 -5 0
-10 -4 -10 -10z"/>
<path d="M1284 37 c-42 -16 -32 -37 17 -37 39 0 44 5 33 34 -7 18 -8 18 -50 3z"/>
<path d="M1746 32 c-6 -11 41 -38 50 -29 8 7 -20 37 -35 37 -5 0 -12 -4 -15
-8z"/>
<path d="M1830 20 c6 -11 15 -20 20 -20 6 0 5 9 -2 20 -7 11 -16 20 -21 20 -4
0 -3 -9 3 -20z"/>
<path d="M1581 14 c0 -11 3 -14 6 -6 3 7 2 16 -1 19 -3 4 -6 -2 -5 -13z"/>
<path d="M2018 23 c6 -3 12 -8 12 -13 0 -4 11 -7 24 -6 32 1 20 13 -19 18 -16
3 -24 3 -17 1z"/>
<path d="M2460 16 c0 -9 5 -16 10 -16 6 0 10 4 10 9 0 6 -4 13 -10 16 -5 3
-10 -1 -10 -9z"/>
</g>
</svg>
